<svg width="332" height="404" viewBox="0 0 332 404" fill="none" xmlns="http://www.w3.org/2000/svg">
<path d="M0 0H332V404H0V0Z" fill="#F1F1F1"/>
<path d="M134.703 198.953H132.812V189.219H134.703V198.953ZM123.453 195.773V191.891H122.562V190.297H129.125V191.891H128.172V195.586C128.599 195.555 128.99 195.516 129.344 195.469L129.438 196.922C128.464 197.109 127.388 197.232 126.211 197.289C125.039 197.346 123.802 197.375 122.5 197.375L122.297 195.781L123.453 195.773ZM124.172 201.828C125.151 201.719 125.984 201.503 126.672 201.18C127.365 200.857 127.885 200.471 128.234 200.023C128.583 199.57 128.76 199.094 128.766 198.594V198.234H130.734V198.594C130.734 199.089 130.911 199.562 131.266 200.016C131.62 200.469 132.146 200.857 132.844 201.18C133.542 201.503 134.385 201.719 135.375 201.828L134.641 203.375C133.505 203.229 132.521 202.938 131.688 202.5C130.854 202.068 130.211 201.523 129.758 200.867C129.305 201.523 128.661 202.068 127.828 202.5C126.995 202.938 126.005 203.229 124.859 203.375L124.172 201.828ZM125.281 195.742C125.536 195.737 125.906 195.724 126.391 195.703V191.891H125.281V195.742ZM128.75 192.953H130.109V189.5H131.969V197.672H130.109V194.562H128.75V192.953ZM147.781 191.297C147.776 191.99 147.766 192.576 147.75 193.055C147.734 193.534 147.69 194.089 147.617 194.719C147.549 195.344 147.443 196.01 147.297 196.719H149.219V198.328H143.734V203.406H141.734V198.328H136.25V196.719H145.344C145.505 196.005 145.628 195.307 145.711 194.625L137.547 195.031L137.312 193.328L145.844 193.094C145.859 192.703 145.867 192.328 145.867 191.969C145.872 191.885 145.875 191.76 145.875 191.594H137.766V190.016H147.781V191.297ZM153.906 190.219C154.63 190.219 155.273 190.427 155.836 190.844C156.404 191.255 156.849 191.844 157.172 192.609C157.495 193.375 157.656 194.266 157.656 195.281C157.656 196.302 157.495 197.198 157.172 197.969C156.849 198.734 156.404 199.326 155.836 199.742C155.273 200.154 154.63 200.359 153.906 200.359C153.182 200.359 152.534 200.154 151.961 199.742C151.393 199.326 150.951 198.734 150.633 197.969C150.315 197.198 150.156 196.302 150.156 195.281C150.156 194.266 150.315 193.375 150.633 192.609C150.951 191.844 151.393 191.255 151.961 190.844C152.534 190.427 153.182 190.219 153.906 190.219ZM152.078 195.281C152.078 195.974 152.154 196.568 152.305 197.062C152.456 197.552 152.669 197.924 152.945 198.18C153.221 198.43 153.542 198.552 153.906 198.547C154.276 198.552 154.599 198.43 154.875 198.18C155.151 197.924 155.365 197.552 155.516 197.062C155.672 196.568 155.75 195.974 155.75 195.281C155.75 194.589 155.672 193.997 155.516 193.508C155.365 193.018 155.151 192.648 154.875 192.398C154.599 192.143 154.276 192.016 153.906 192.016C153.542 192.016 153.221 192.143 152.945 192.398C152.669 192.648 152.456 193.021 152.305 193.516C152.154 194.005 152.078 194.594 152.078 195.281ZM159.297 189.219H161.297V194.578H163.391V196.234H161.297V203.438H159.297V189.219ZM178.875 193.297H180.797V194.953H178.875V199.578H176.875V189.219H178.875V193.297ZM167.688 193.75C167.688 193.057 167.859 192.438 168.203 191.891C168.547 191.339 169.016 190.909 169.609 190.602C170.208 190.294 170.87 190.141 171.594 190.141C172.312 190.141 172.966 190.294 173.555 190.602C174.148 190.909 174.615 191.339 174.953 191.891C175.297 192.438 175.469 193.057 175.469 193.75C175.469 194.432 175.297 195.049 174.953 195.602C174.615 196.148 174.148 196.578 173.555 196.891C172.966 197.203 172.312 197.359 171.594 197.359C170.87 197.359 170.208 197.203 169.609 196.891C169.016 196.578 168.547 196.148 168.203 195.602C167.859 195.049 167.688 194.432 167.688 193.75ZM169.656 198.484H171.641V201.594H179.391V203.188H169.656V198.484ZM169.656 193.75C169.651 194.125 169.732 194.456 169.898 194.742C170.07 195.023 170.305 195.242 170.602 195.398C170.898 195.549 171.229 195.625 171.594 195.625C171.958 195.625 172.286 195.549 172.578 195.398C172.875 195.242 173.107 195.023 173.273 194.742C173.445 194.456 173.531 194.125 173.531 193.75C173.531 193.365 173.445 193.031 173.273 192.75C173.107 192.464 172.875 192.245 172.578 192.094C172.286 191.943 171.958 191.87 171.594 191.875C171.229 191.87 170.898 191.943 170.602 192.094C170.305 192.245 170.07 192.464 169.898 192.75C169.732 193.031 169.651 193.365 169.656 193.75ZM193.688 203.438H191.766V196.328H190.438V202.75H188.562V189.453H190.438V194.719H191.766V189.219H193.688V203.438ZM182 190.797H184V198.227C185.333 198.19 186.589 198.057 187.766 197.828L187.969 199.547C186.286 199.839 184.62 199.979 182.969 199.969H182V190.797ZM208.25 197.828H202.891V200.281H200.922V197.828H195.234V196.25H208.25V197.828ZM196.766 199.047H198.75V201.594H206.812V203.188H196.766V199.047ZM196.859 189.844H206.578V195.078H196.859V189.844ZM204.625 193.531V191.391H198.812V193.531H204.625Z" fill="#777777"/>
<path d="M134.703 198.953H132.812V189.219H134.703V198.953ZM123.453 195.773V191.891H122.562V190.297H129.125V191.891H128.172V195.586C128.599 195.555 128.99 195.516 129.344 195.469L129.438 196.922C128.464 197.109 127.388 197.232 126.211 197.289C125.039 197.346 123.802 197.375 122.5 197.375L122.297 195.781L123.453 195.773ZM124.172 201.828C125.151 201.719 125.984 201.503 126.672 201.18C127.365 200.857 127.885 200.471 128.234 200.023C128.583 199.57 128.76 199.094 128.766 198.594V198.234H130.734V198.594C130.734 199.089 130.911 199.562 131.266 200.016C131.62 200.469 132.146 200.857 132.844 201.18C133.542 201.503 134.385 201.719 135.375 201.828L134.641 203.375C133.505 203.229 132.521 202.938 131.688 202.5C130.854 202.068 130.211 201.523 129.758 200.867C129.305 201.523 128.661 202.068 127.828 202.5C126.995 202.938 126.005 203.229 124.859 203.375L124.172 201.828ZM125.281 195.742C125.536 195.737 125.906 195.724 126.391 195.703V191.891H125.281V195.742ZM128.75 192.953H130.109V189.5H131.969V197.672H130.109V194.562H128.75V192.953ZM147.781 191.297C147.776 191.99 147.766 192.576 147.75 193.055C147.734 193.534 147.69 194.089 147.617 194.719C147.549 195.344 147.443 196.01 147.297 196.719H149.219V198.328H143.734V203.406H141.734V198.328H136.25V196.719H145.344C145.505 196.005 145.628 195.307 145.711 194.625L137.547 195.031L137.312 193.328L145.844 193.094C145.859 192.703 145.867 192.328 145.867 191.969C145.872 191.885 145.875 191.76 145.875 191.594H137.766V190.016H147.781V191.297ZM153.906 190.219C154.63 190.219 155.273 190.427 155.836 190.844C156.404 191.255 156.849 191.844 157.172 192.609C157.495 193.375 157.656 194.266 157.656 195.281C157.656 196.302 157.495 197.198 157.172 197.969C156.849 198.734 156.404 199.326 155.836 199.742C155.273 200.154 154.63 200.359 153.906 200.359C153.182 200.359 152.534 200.154 151.961 199.742C151.393 199.326 150.951 198.734 150.633 197.969C150.315 197.198 150.156 196.302 150.156 195.281C150.156 194.266 150.315 193.375 150.633 192.609C150.951 191.844 151.393 191.255 151.961 190.844C152.534 190.427 153.182 190.219 153.906 190.219ZM152.078 195.281C152.078 195.974 152.154 196.568 152.305 197.062C152.456 197.552 152.669 197.924 152.945 198.18C153.221 198.43 153.542 198.552 153.906 198.547C154.276 198.552 154.599 198.43 154.875 198.18C155.151 197.924 155.365 197.552 155.516 197.062C155.672 196.568 155.75 195.974 155.75 195.281C155.75 194.589 155.672 193.997 155.516 193.508C155.365 193.018 155.151 192.648 154.875 192.398C154.599 192.143 154.276 192.016 153.906 192.016C153.542 192.016 153.221 192.143 152.945 192.398C152.669 192.648 152.456 193.021 152.305 193.516C152.154 194.005 152.078 194.594 152.078 195.281ZM159.297 189.219H161.297V194.578H163.391V196.234H161.297V203.438H159.297V189.219ZM178.875 193.297H180.797V194.953H178.875V199.578H176.875V189.219H178.875V193.297ZM167.688 193.75C167.688 193.057 167.859 192.438 168.203 191.891C168.547 191.339 169.016 190.909 169.609 190.602C170.208 190.294 170.87 190.141 171.594 190.141C172.312 190.141 172.966 190.294 173.555 190.602C174.148 190.909 174.615 191.339 174.953 191.891C175.297 192.438 175.469 193.057 175.469 193.75C175.469 194.432 175.297 195.049 174.953 195.602C174.615 196.148 174.148 196.578 173.555 196.891C172.966 197.203 172.312 197.359 171.594 197.359C170.87 197.359 170.208 197.203 169.609 196.891C169.016 196.578 168.547 196.148 168.203 195.602C167.859 195.049 167.688 194.432 167.688 193.75ZM169.656 198.484H171.641V201.594H179.391V203.188H169.656V198.484ZM169.656 193.75C169.651 194.125 169.732 194.456 169.898 194.742C170.07 195.023 170.305 195.242 170.602 195.398C170.898 195.549 171.229 195.625 171.594 195.625C171.958 195.625 172.286 195.549 172.578 195.398C172.875 195.242 173.107 195.023 173.273 194.742C173.445 194.456 173.531 194.125 173.531 193.75C173.531 193.365 173.445 193.031 173.273 192.75C173.107 192.464 172.875 192.245 172.578 192.094C172.286 191.943 171.958 191.87 171.594 191.875C171.229 191.87 170.898 191.943 170.602 192.094C170.305 192.245 170.07 192.464 169.898 192.75C169.732 193.031 169.651 193.365 169.656 193.75ZM193.688 203.438H191.766V196.328H190.438V202.75H188.562V189.453H190.438V194.719H191.766V189.219H193.688V203.438ZM182 190.797H184V198.227C185.333 198.19 186.589 198.057 187.766 197.828L187.969 199.547C186.286 199.839 184.62 199.979 182.969 199.969H182V190.797ZM208.25 197.828H202.891V200.281H200.922V197.828H195.234V196.25H208.25V197.828ZM196.766 199.047H198.75V201.594H206.812V203.188H196.766V199.047ZM196.859 189.844H206.578V195.078H196.859V189.844ZM204.625 193.531V191.391H198.812V193.531H204.625Z" fill="black" fill-opacity="0.2"/>
</svg>
