<svg width="18" height="22" viewBox="0 0 18 22" fill="none" xmlns="http://www.w3.org/2000/svg">
<g id="Group 1139">
<path id="Vector" d="M16.8913 17.7509H15.4565V7.8558C15.4565 4.88951 13.003 2.44757 9.83935 2.08052V1.3764C9.83935 0.897004 9.4663 0.5 9 0.5C8.5337 0.5 8.16065 0.889513 8.16065 1.3764V2.08052C4.98978 2.45506 2.54348 4.897 2.54348 7.8558V17.7509H1.1087C0.907826 17.7509 0.75 17.9157 0.75 18.1255C0.75 18.3352 0.907826 18.5 1.1087 18.5H2.54348H15.4565H16.8913C17.0922 18.5 17.25 18.3352 17.25 18.1255C17.25 17.9157 17.0922 17.7509 16.8913 17.7509ZM3.26087 7.8558C3.26087 5.05431 5.8363 2.76966 9 2.76966C12.1637 2.76966 14.7391 5.04682 14.7391 7.8558V17.7509H3.26087V7.8558Z" fill="black"/>
<path id="Vector_2" d="M8.70652 21.4999C9.78652 21.4999 10.663 20.6617 10.663 19.6289H6.75C6.75 20.6617 7.62652 21.4999 8.70652 21.4999Z" fill="black"/>
</g>
</svg>
