<svg width="16" height="22" viewBox="0 0 16 22" fill="none" xmlns="http://www.w3.org/2000/svg">
<path id="Vector" d="M15.4969 10.1842V9.43585C15.4969 9.34604 15.4969 9.26372 15.4969 9.20385C15.4969 5.5891 11.9644 4.05488 9.68438 3.68068L9.09188 3.58339C9.09188 3.58339 9.02438 3.58339 8.99438 3.56842L10.5394 2.54312C10.7719 2.39344 10.8544 2.13899 10.8544 1.84711C10.8694 1.08375 10.1944 0.5 9.44438 0.5C9.34688 0.5 9.24938 0.507484 9.15188 0.529936C8.75438 0.612259 8.32688 0.844262 7.99688 0.844262C7.66688 0.844262 7.25438 0.619743 6.85688 0.53742C6.75938 0.514968 6.66188 0.507484 6.57188 0.507484C5.74688 0.5 5.00438 1.24091 5.17688 2.0866C5.21438 2.28118 5.33438 2.45331 5.49938 2.56557L7.00688 3.56842L6.42938 3.65075C3.48188 4.07733 0.519383 5.5891 0.519383 9.39095C0.519383 9.39843 0.519383 9.42088 0.519383 9.43585C0.519383 9.43585 0.511883 9.43585 0.504383 9.43585V10.1842C0.504383 10.1842 0.504383 10.1842 0.511883 10.1842C0.504383 11.6137 0.489383 14.5474 0.511883 15.9394C0.541883 18.0873 1.68938 20.108 3.57188 21.036C3.84188 21.1707 4.09688 21.2605 4.32188 21.283C5.57438 21.4252 6.82688 21.5 8.08688 21.5C9.34688 21.5 10.5994 21.4252 11.8519 21.283C12.1069 21.253 12.3919 21.1408 12.6844 20.9836C14.4394 20.0331 15.4819 18.1023 15.4969 16.0592C15.5119 14.6372 15.4969 11.7858 15.4969 10.1768V10.1842ZM6.02438 1.51782C6.15938 1.35317 6.36938 1.25588 6.57938 1.25588C6.62438 1.25588 6.66938 1.25588 6.71438 1.27085C6.82688 1.2933 6.96938 1.34569 7.11188 1.39059C7.39688 1.48788 7.68188 1.59266 8.00438 1.59266C8.32688 1.59266 8.61938 1.48788 8.90438 1.39059C9.05438 1.3382 9.18938 1.2933 9.30938 1.26336C9.35438 1.25588 9.39938 1.2484 9.44438 1.2484C9.63188 1.2484 9.81188 1.32324 9.93938 1.45795C10.0144 1.53279 10.1044 1.66001 10.1044 1.84711C10.1044 1.8995 10.1044 1.92944 10.0969 1.9444L8.11688 3.26158C8.07938 3.29152 8.03438 3.29152 8.00438 3.29152C7.97438 3.29152 7.93688 3.29152 7.89188 3.26158L5.91188 1.9444C5.87438 1.75731 5.94938 1.60763 6.02438 1.51782ZM1.26938 9.39095C1.26938 5.88097 4.13438 4.73592 6.54188 4.39166L7.17938 4.30185C7.45688 4.26443 7.73438 4.24198 8.01188 4.24198C8.33438 4.24198 8.65688 4.27192 8.97188 4.32431L9.56438 4.4216C10.0969 4.5114 14.7469 5.38703 14.7469 9.20385V9.56308C14.1019 9.7876 13.6969 10.289 13.3294 10.7455C12.8869 11.2994 12.5044 11.7708 11.7469 11.7708C10.9894 11.7708 10.6069 11.2919 10.1644 10.7455C9.66938 10.1319 9.11438 9.44334 7.99688 9.44334C6.87938 9.44334 6.32438 10.1393 5.82938 10.753C5.38688 11.2994 5.00438 11.7783 4.24688 11.7783C3.48938 11.7783 3.10688 11.3068 2.66438 10.753C2.29688 10.2965 1.89938 9.80257 1.26188 9.57805V9.40592L1.26938 9.39095ZM14.7469 16.0592C14.7319 17.9002 13.8019 19.5317 12.3244 20.3325C12.0169 20.4972 11.8369 20.5346 11.7619 20.5495C10.5469 20.6917 9.30938 20.7591 8.08688 20.7591C6.86438 20.7591 5.62688 20.6917 4.41188 20.5495C4.34438 20.5421 4.18688 20.5046 3.90938 20.3774C2.32688 19.5991 1.29188 17.8553 1.26938 15.9394C1.25438 14.6148 1.26938 11.8981 1.26938 10.4013C1.58438 10.5884 1.82438 10.8877 2.08688 11.217C2.58188 11.8307 3.13688 12.5267 4.25438 12.5267C5.37188 12.5267 5.92688 11.8307 6.42188 11.217C6.86438 10.6707 7.24688 10.1917 8.00438 10.1917C8.76188 10.1917 9.14438 10.6707 9.58688 11.217C10.0819 11.8307 10.6369 12.5192 11.7544 12.5192C12.8719 12.5192 13.4269 11.8232 13.9219 11.217C14.1919 10.8877 14.4394 10.5809 14.7544 10.3938C14.7544 12.0178 14.7619 14.7046 14.7544 16.0666L14.7469 16.0592Z" fill="#333333"/>
</svg>
