<svg width="28" height="28" viewBox="0 0 28 28" fill="none" xmlns="http://www.w3.org/2000/svg">
<g id="Group 1016">
<path id="Vector" d="M14 27C21.1797 27 27 21.1797 27 14C27 6.8203 21.1797 1 14 1C6.8203 1 1 6.8203 1 14C1 21.1797 6.8203 27 14 27Z" stroke="#4D4D4D" stroke-miterlimit="10"/>
<path id="Vector_2" d="M9.06651 19.9607C10.3047 21.0935 11.8565 21.7857 13.4788 22.0553L15.4473 22.378C15.6574 22.4706 15.8394 22.6112 15.9684 22.8106C16.2043 23.1823 16.1739 23.7088 15.9044 24.0523C15.5156 24.5247 14.825 24.5445 14.2245 24.496C11.7065 24.2422 9.22404 23.2482 7.34877 21.4719C5.47351 19.6957 4.25446 17.1285 4.26256 14.4842L4.26271 14.4721C4.26908 13.9458 4.27692 13.2985 4.72418 12.9596C5.05868 12.7096 5.53313 12.6723 5.87726 12.9016C6.53049 13.3449 6.46568 14.2969 6.54118 15.0083C6.73784 16.9135 7.68127 18.7026 9.06651 19.9607Z" stroke="#4D4D4D" stroke-miterlimit="10"/>
</g>
</svg>
