<svg width="24" height="24" viewBox="0 0 24 24" fill="none" xmlns="http://www.w3.org/2000/svg">
<g id="Group 1141">
<path id="Vector" d="M12 24C18.6274 24 24 18.6274 24 12C24 5.37258 18.6274 0 12 0C5.37258 0 0 5.37258 0 12C0 18.6274 5.37258 24 12 24Z" fill="#69A1FF"/>
<path id="Vector_2" d="M7.44601 17.5019C8.58897 18.5475 10.0214 19.1864 11.5189 19.4353L13.336 19.7332C13.5299 19.8186 13.698 19.9485 13.817 20.1325C14.0348 20.4756 14.0067 20.9617 13.7579 21.2787C13.3991 21.7148 12.7615 21.7331 12.2072 21.6883C9.88289 21.454 7.59142 20.5365 5.86041 18.8968C4.12939 17.2572 3.00412 14.8875 3.0116 12.4466L3.01173 12.4355C3.01761 11.9496 3.02485 11.3521 3.43771 11.0393C3.74647 10.8085 4.18443 10.7741 4.50209 10.9858C5.10507 11.3949 5.04524 12.2737 5.11494 12.9304C5.29647 14.689 6.16732 16.3406 7.44601 17.5019Z" fill="#F1F1F1"/>
</g>
</svg>
