<svg width="22" height="22" viewBox="0 0 22 22" fill="none" xmlns="http://www.w3.org/2000/svg">
<path d="M11 21C16.5228 21 21 16.5228 21 11C21 5.47715 16.5228 1 11 1C5.47715 1 1 5.47715 1 11C1 16.5228 5.47715 21 11 21Z" stroke="#4D4D4D" stroke-miterlimit="10"/>
<path d="M7.20549 15.5849C8.15796 16.4563 9.35168 16.9887 10.5996 17.1961L12.1138 17.4443C12.2754 17.5155 12.4154 17.6237 12.5146 17.7771C12.6961 18.063 12.6727 18.4681 12.4654 18.7323C12.1664 19.0957 11.6351 19.1109 11.1732 19.0736C9.23623 18.8784 7.32667 18.1137 5.88416 16.7474C4.44165 15.381 3.50392 13.4063 3.51015 11.3722L3.51026 11.3629C3.51517 10.958 3.5212 10.4601 3.86525 10.1994C4.12255 10.0071 4.48751 9.97842 4.75223 10.1548C5.25471 10.4958 5.20486 11.2281 5.26293 11.7753C5.41421 13.2409 6.13992 14.6171 7.20549 15.5849Z" stroke="#4D4D4D" stroke-miterlimit="10"/>
</svg>
