<svg width="26" height="26" viewBox="0 0 26 26" fill="none" xmlns="http://www.w3.org/2000/svg">
<path d="M13 25C19.6274 25 25 19.6274 25 13C25 6.37258 19.6274 1 13 1C6.37258 1 1 6.37258 1 13C1 19.6274 6.37258 25 13 25Z" stroke="white" stroke-miterlimit="10"/>
<path d="M8.44601 18.5019C9.58896 19.5475 11.0214 20.1864 12.5189 20.4353L14.336 20.7332C14.5299 20.8186 14.698 20.9485 14.817 21.1325C15.0348 21.4756 15.0067 21.9617 14.7579 22.2787C14.3991 22.7148 13.7615 22.7331 13.2072 22.6883C10.8829 22.454 8.59142 21.5365 6.86041 19.8968C5.12939 18.2572 4.00412 15.8875 4.0116 13.4466L4.01173 13.4355C4.01761 12.9496 4.02485 12.3521 4.43771 12.0393C4.74647 11.8085 5.18443 11.7741 5.50209 11.9858C6.10507 12.3949 6.04524 13.2737 6.11494 13.9304C6.29647 15.689 7.16732 17.3406 8.44601 18.5019Z" stroke="white" stroke-miterlimit="10"/>
</svg>
