<svg xmlns="http://www.w3.org/2000/svg" width="47" height="43" viewBox="0 0 47 43" fill="none">
  <path d="M33.4397 4.58082C33.4397 4.58082 36.1397 4.53082 36.8397 5.63082C37.5397 6.73082 36.8397 8.80082 36.8397 8.80082C36.8397 8.80082 41.0897 9.15082 41.2097 10.7708C41.3297 12.3908 39.8297 13.1808 39.8297 13.1808L40.2497 14.1408C40.2497 14.1408 42.1897 15.3908 41.2197 17.5608C40.2497 19.7308 39.1797 19.6708 39.1797 19.6708C39.1797 19.6708 39.4697 21.4708 38.8697 22.3808C38.2697 23.2908 36.0297 23.5608 36.0297 23.5608L38.9197 27.0308L39.6997 26.4508L41.0597 23.7708L43.8697 21.9508L45.4697 19.6408V17.4308L44.2897 15.1108L45.6897 12.0108V9.89082L44.7697 8.17082L42.5797 6.79082L40.6197 6.05082L38.9697 4.00082L38.6297 0.88082L37.9597 0.59082L36.0497 1.77082L33.4297 4.58082H33.4397Z" fill="#59A9FC"/>
  <path d="M26.0205 12.4811C26.0205 12.4811 26.3605 11.2211 25.2205 10.7711C23.6805 10.1511 22.3805 11.0211 22.3805 11.0211C22.3805 11.0211 21.9505 9.63106 20.9105 9.66106C19.0905 9.72106 17.7905 12.0111 17.7905 12.0111C17.7905 12.0111 16.2805 11.4111 14.9805 11.7811C13.2405 12.2811 12.0605 15.3611 12.0605 15.3611L13.0305 10.5111L15.0805 8.27105L17.4505 7.76105L18.5405 6.95106L20.3705 5.83105H22.3605L23.4105 6.57105L25.0705 7.35105H26.5405L27.6205 8.38105L27.9405 10.7711L26.0005 12.4811H26.0205Z" fill="#59A9FC"/>
  <path d="M9.15172 37.1413C9.91939 37.1413 10.5417 36.519 10.5417 35.7513C10.5417 34.9837 9.91939 34.3613 9.15172 34.3613C8.38404 34.3613 7.76172 34.9837 7.76172 35.7513C7.76172 36.519 8.38404 37.1413 9.15172 37.1413Z" fill="black"/>
  <path d="M6.1304 42.7911C5.2104 42.7911 4.1904 42.5511 3.3504 41.7111C1.9304 40.2911 1.5404 36.1811 3.6304 31.3811C5.6004 26.8411 7.7304 22.9111 15.5204 17.1211C19.6804 14.0311 23.5904 12.6111 25.9304 11.7711C26.8204 11.4511 27.5804 11.1711 27.8504 10.9811C28.8804 10.2211 30.4704 7.88109 31.7404 6.00109C32.6304 4.70109 33.3904 3.57109 33.9604 2.94109C33.9904 2.90109 37.1404 -0.568911 38.6604 0.0810893C38.9304 0.191089 39.3704 0.521089 39.3004 1.42109C39.1404 3.70109 39.8004 4.67109 40.9904 5.58109C41.0604 5.62109 41.3804 5.73109 41.6304 5.81109C42.9404 6.25109 45.3804 7.06109 46.2204 9.32109C46.9904 11.3911 46.0604 12.8311 45.3804 13.8911C45.1604 14.2411 44.9404 14.5611 44.8504 14.8311C44.8104 14.9511 45.0604 15.3611 45.2504 15.6611C45.7604 16.4711 46.5304 17.7011 46.1304 19.4911C45.6204 21.7611 44.3204 22.4611 42.8204 23.2611C42.6104 23.3711 42.3904 23.4911 42.1604 23.6211C41.2504 24.1311 40.7904 25.3011 40.4304 26.2311C40.1304 26.9911 39.9204 27.5511 39.4404 27.7411C38.8004 28.0111 38.3804 27.4711 36.5804 25.2211C34.6004 22.7411 31.2904 18.5911 29.2004 18.2511C27.2304 17.9311 25.5504 18.5411 24.2104 20.0711C23.0004 21.4611 22.7604 23.3111 22.7604 26.0411V29.1911C22.7604 29.5211 22.4904 29.7911 22.1604 29.7911C21.8304 29.7911 21.5604 29.5211 21.5604 29.1911V26.0411C21.5604 23.5311 21.6904 21.1311 23.3004 19.2811C24.9104 17.4411 27.0104 16.6711 29.3904 17.0611C31.9404 17.4811 35.1604 21.5211 37.5104 24.4711C38.0704 25.1711 38.6804 25.9411 39.0704 26.3611C39.1504 26.1911 39.2304 25.9811 39.3004 25.8011C39.7104 24.7411 40.2804 23.2911 41.5704 22.5711C41.8004 22.4411 42.0304 22.3211 42.2504 22.2011C43.6504 21.4511 44.5704 20.9611 44.9504 19.2311C45.2404 17.9311 44.7004 17.0611 44.2304 16.3011C43.8504 15.6911 43.4904 15.1111 43.7104 14.4511C43.8504 14.0411 44.1004 13.6611 44.3604 13.2411C44.9904 12.2611 45.6404 11.2511 45.0804 9.75109C44.4404 8.03109 42.4404 7.36109 41.2404 6.96109C40.7704 6.80109 40.4604 6.70109 40.2504 6.54109C38.5404 5.25109 37.9104 3.74109 38.0804 1.33109C38.0804 1.28109 38.0804 1.24109 38.0804 1.20109C37.5204 1.32109 36.0004 2.44109 34.8404 3.74109C34.3304 4.31109 33.5504 5.46109 32.7204 6.67109C31.3204 8.73109 29.7404 11.0611 28.5504 11.9411C28.1404 12.2411 27.4204 12.5111 26.3204 12.9011C24.0504 13.7211 20.2404 15.1011 16.2204 18.0911C8.6704 23.7011 6.6104 27.4911 4.7104 31.8611C2.7404 36.3911 3.2304 39.9011 4.1804 40.8511C5.1804 41.8511 6.5404 41.6311 7.7504 41.3411L8.1804 41.2411C10.0604 40.8011 10.8404 40.6211 12.7804 39.6911C15.0404 38.6111 16.1204 37.9911 17.3904 37.0411C17.7804 36.7511 18.1104 36.4211 18.4104 36.1311C18.5504 35.9911 18.6804 35.8611 18.8004 35.7611C19.0504 35.5411 19.4304 35.5611 19.6504 35.8111C19.8704 36.0611 19.8504 36.4411 19.6004 36.6611C19.4904 36.7511 19.3804 36.8711 19.2504 37.0011C18.9404 37.3011 18.5604 37.6711 18.1104 38.0111C16.7804 39.0011 15.6204 39.6711 13.3004 40.7811C11.2404 41.7711 10.3704 41.9711 8.4604 42.4211L8.0304 42.5211C7.5704 42.6311 6.8804 42.7911 6.1204 42.7911H6.1304Z" fill="black"/>
  <path d="M27.1602 39.8708C26.5602 39.8708 25.6502 39.5008 24.0502 38.8008C23.6102 38.6008 23.1902 38.4208 22.8702 38.3008C21.6402 37.8308 18.9902 36.7808 18.9902 36.7808L19.4302 35.6608C19.4302 35.6608 22.0702 36.7008 23.3002 37.1808C23.6402 37.3108 24.0702 37.5008 24.5302 37.7008C25.2602 38.0208 26.5802 38.6008 27.0602 38.6708C27.1202 38.2908 26.5802 36.8508 26.2902 36.0708C26.0102 35.3108 25.7402 34.5908 25.6102 33.9908C25.4402 33.1708 24.8302 32.1108 21.6202 32.2808C21.2802 32.2808 21.0002 32.0408 20.9902 31.7108C20.9802 31.3808 21.2302 31.0908 21.5602 31.0808C24.6302 30.9208 26.3902 31.8108 26.8002 33.7408C26.9102 34.2508 27.1702 34.9608 27.4302 35.6508C28.1002 37.4508 28.7402 39.1608 27.6502 39.7708C27.5102 39.8508 27.3502 39.8908 27.1602 39.8908V39.8708Z" fill="black"/>
  <path d="M13.5615 36.3614C13.2315 36.3614 12.9615 36.0914 12.9615 35.7614C12.9615 35.7414 12.9615 33.8314 12.4015 32.5014C11.9015 31.2814 10.7315 30.7014 10.7215 30.6914C10.4215 30.5514 10.2915 30.1914 10.4415 29.8914C10.5815 29.5914 10.9415 29.4614 11.2415 29.6114C11.3015 29.6414 12.8415 30.3914 13.5215 32.0514C14.1615 33.6114 14.1715 35.6814 14.1715 35.7714C14.1715 36.1014 13.9015 36.3714 13.5715 36.3714L13.5615 36.3614Z" fill="black"/>
  <path d="M4.64971 29.6311C4.64971 29.6311 2.55971 27.5411 1.92971 26.9611C1.47971 26.5411 0.29971 25.8911 0.67971 25.5411C1.05971 25.1911 2.70971 24.1111 3.36971 24.0511C4.02971 23.9911 5.17971 24.3811 5.30971 24.5811" fill="white"/>
  <path d="M4.65075 30.2313C4.50075 30.2313 4.34075 30.1713 4.22075 30.0513C4.20075 30.0313 2.14075 27.9613 1.52075 27.4013C1.41075 27.3013 1.27075 27.1913 1.11075 27.0813C0.560751 26.6713 0.0307513 26.2813 0.000751253 25.7413C-0.00924875 25.5013 0.0807515 25.2713 0.260751 25.0913C0.660751 24.7113 2.44075 23.5213 3.31075 23.4413C4.01075 23.3713 5.48075 23.7313 5.81075 24.2413C5.99075 24.5213 5.92075 24.8913 5.64075 25.0713C5.39075 25.2413 5.06075 25.1913 4.87075 24.9713C4.66075 24.8413 3.86075 24.5913 3.43075 24.6313C3.08075 24.6613 1.95075 25.3113 1.37075 25.7413C1.52075 25.8613 1.71075 26.0113 1.83075 26.1013C2.02075 26.2413 2.21075 26.3813 2.34075 26.5013C2.98075 27.0913 5.00075 29.1113 5.08075 29.1913C5.31075 29.4313 5.31075 29.8113 5.08075 30.0413C4.96075 30.1613 4.81075 30.2213 4.65075 30.2213V30.2313Z" fill="black"/>
  <path d="M12.1913 20.3112C12.1413 20.1612 11.0013 16.7212 11.6713 12.7712C12.1413 10.0312 13.4513 8.63119 14.4713 7.93119C15.4113 7.29119 16.4813 7.00119 17.3813 7.12119C17.4813 7.04119 17.6313 6.92119 17.7613 6.81119C18.6313 6.07119 20.0913 4.83119 21.8013 5.04119C22.7813 5.16119 23.6513 5.75119 24.4113 6.79119C24.5313 6.79119 24.8013 6.76119 24.9913 6.74119C25.7713 6.63119 27.0913 6.45119 27.9213 7.66119C29.3613 9.77119 27.9213 12.0912 27.8613 12.1912L26.8413 11.5512C26.8813 11.4812 27.9113 9.79119 26.9213 8.34119C26.5413 7.78119 25.9913 7.81119 25.1513 7.93119C24.5513 8.02119 23.8713 8.11119 23.4713 7.55119C22.9113 6.75119 22.2913 6.31119 21.6413 6.23119C20.4613 6.08119 19.2613 7.11119 18.5313 7.72119C18.0113 8.17119 17.7213 8.41119 17.3213 8.33119C16.8613 8.23119 16.0113 8.33119 15.1413 8.92119C14.3113 9.48119 13.2413 10.6412 12.8513 12.9612C12.2313 16.6012 13.3113 19.8812 13.3213 19.9112L12.1813 20.2912L12.1913 20.3112Z" fill="black"/>
  <path d="M42.7301 23.2914C42.5801 23.2914 42.4301 23.2414 42.3201 23.1314C42.3001 23.1114 39.8501 20.8214 37.3101 19.0214C34.8301 17.2614 32.0701 16.5914 32.0401 16.5914C31.7201 16.5114 31.5201 16.1914 31.5901 15.8614C31.6701 15.5414 31.9901 15.3414 32.3201 15.4114C32.4401 15.4414 35.3401 16.1414 38.0101 18.0314C40.6201 19.8814 43.0501 22.1514 43.1501 22.2514C43.3901 22.4814 43.4001 22.8614 43.1801 23.1014C43.0601 23.2314 42.9001 23.2914 42.7401 23.2914H42.7301Z" fill="black"/>
  <path d="M43.8711 15.7113C43.7511 15.7113 43.6311 15.6813 43.5311 15.6013C43.5111 15.5913 41.8311 14.4713 38.8811 14.0013C35.8811 13.5213 32.8111 14.0013 32.7811 14.0013C32.4511 14.0513 32.1411 13.8313 32.0911 13.5013C32.0411 13.1713 32.2611 12.8613 32.5911 12.8113C32.7211 12.7913 35.8711 12.3013 39.0711 12.8113C42.3111 13.3313 44.1311 14.5613 44.2111 14.6113C44.4811 14.8013 44.5511 15.1713 44.3711 15.4513C44.2511 15.6213 44.0611 15.7113 43.8711 15.7113Z" fill="black"/>
  <path d="M32.9412 11.1107C32.7212 11.1107 32.5212 10.9907 32.4112 10.7907C32.2512 10.5007 32.3612 10.1307 32.6612 9.97067C32.7712 9.91067 35.4412 8.50067 37.6512 8.25067C39.8612 8.00067 42.0212 8.56067 42.1112 8.58067C42.4312 8.66067 42.6312 8.99067 42.5412 9.31067C42.4612 9.63067 42.1312 9.82067 41.8112 9.74067C41.7912 9.74067 39.7712 9.22067 37.7812 9.44067C35.8012 9.66067 33.2512 11.0107 33.2312 11.0207C33.1412 11.0707 33.0412 11.0907 32.9512 11.0907L32.9412 11.1107Z" fill="black"/>
  <path d="M17.1302 17.1209C16.8702 17.1209 16.6302 16.9509 16.5502 16.6809C16.5302 16.6309 16.1802 15.3309 16.3302 13.5209C16.4902 11.6509 17.2002 10.4809 17.3902 10.3109C17.6402 10.0909 18.0202 10.1209 18.2402 10.3709C18.4402 10.6009 18.4402 10.9309 18.2402 11.1609C18.1002 11.3609 17.6402 12.2809 17.5202 13.6309C17.3902 15.2109 17.7002 16.3509 17.7002 16.3609C17.7902 16.6809 17.6002 17.0109 17.2802 17.1009C17.2302 17.1209 17.1702 17.1209 17.1202 17.1209H17.1302Z" fill="black"/>
  <path d="M21.0501 14.9613C20.7701 14.9613 20.5301 14.7713 20.4701 14.4913C20.4501 14.4013 20.3001 13.5813 20.8001 11.9013C21.2601 10.3613 22.1301 9.31127 22.1601 9.27127C22.3701 9.02127 22.7501 8.98127 23.0101 9.20127C23.2601 9.41127 23.3001 9.79127 23.0901 10.0513C23.0901 10.0513 22.3401 10.9613 21.9601 12.2513C21.5501 13.6213 21.6601 14.2513 21.6601 14.2613C21.7201 14.5813 21.5101 14.9013 21.1801 14.9613C21.1401 14.9613 21.1001 14.9713 21.0601 14.9713L21.0501 14.9613Z" fill="black"/>
</svg>