<svg xmlns="http://www.w3.org/2000/svg" width="48" height="35" viewBox="0 0 48 35" fill="none">
  <path d="M8.61328 1.08715C8.61328 1.08715 10.0133 2.79715 10.2233 4.02715C10.4333 5.25715 10.4533 6.39715 10.4533 6.39715L12.8533 7.16715L21.8033 11.3671L27.9433 15.6971L36.2633 22.2371L36.0433 20.6371L32.0033 14.6371L27.6933 8.91715L24.2333 5.89715L19.7133 3.13715L15.6433 1.07715H8.62328L8.61328 1.08715Z" fill="#59A9FC"/>
  <path d="M20.1025 24.6574C13.3425 24.6574 7.5125 19.1574 5.7825 16.9374C4.4925 15.2974 -1.9275 5.53742 0.572496 1.82741C2.3125 -0.752585 7.3825 0.107415 8.1425 0.257415C8.8625 0.197415 13.5225 -0.0825851 17.6725 1.57741C21.6625 3.16741 25.2625 5.55741 28.1025 8.48741C29.8725 10.3174 33.5525 15.8474 35.1225 18.2074C35.4125 18.6474 35.6225 18.9574 35.7025 19.0674L35.8325 19.2474C36.2925 19.8774 37.2625 21.1774 36.9725 22.4974C36.8125 23.2274 36.3125 23.8174 35.4925 24.2674C33.7725 25.2074 32.3925 24.0174 31.4825 23.2274C31.1325 22.9274 30.6925 22.5474 30.4825 22.5274C30.2225 22.5074 29.7525 22.6874 29.1525 22.9074C27.7325 23.4274 25.3525 24.3074 20.9625 24.6174C20.6725 24.6374 20.3925 24.6474 20.1025 24.6474V24.6574ZM5.42249 1.20741C3.91249 1.20741 2.2625 1.48742 1.5825 2.50742C-0.117502 5.02742 4.42249 13.2474 6.74249 16.1974C9.10249 19.2074 15.0225 23.8374 20.8825 23.4274C25.1025 23.1374 27.3825 22.2974 28.7425 21.7874C29.5425 21.4974 30.0825 21.2974 30.5925 21.3374C31.1925 21.3874 31.7225 21.8374 32.2825 22.3174C33.2925 23.1774 34.0225 23.7174 34.9325 23.2074C35.4425 22.9274 35.7325 22.6074 35.8125 22.2374C35.9825 21.4474 35.2425 20.4474 34.8825 19.9574L34.7325 19.7574C34.6525 19.6374 34.4425 19.3274 34.1425 18.8674C32.7225 16.7374 28.9625 11.0674 27.2625 9.31741C24.5425 6.50741 21.0825 4.21741 17.2525 2.68741C13.1025 1.02741 8.2325 1.44741 8.1925 1.45741H8.1025H8.0125C7.4425 1.33741 6.4725 1.20741 5.4425 1.20741H5.42249Z" fill="black"/>
  <path d="M20.9333 31.6275C18.1833 31.6275 15.8533 30.8175 15.1533 29.3275C14.1533 27.1875 14.3933 22.9075 14.4033 22.7275L15.6033 22.7975C15.6033 22.7975 15.3633 26.9475 16.2433 28.8075C16.9633 30.3375 21.7033 31.2075 26.1933 29.3875C30.4033 27.6775 32.0033 23.1975 32.0133 23.1475L33.1533 23.5475C33.0833 23.7475 31.3533 28.5975 26.6433 30.5075C24.7933 31.2575 22.7733 31.6175 20.9333 31.6175V31.6275Z" fill="black"/>
  <path d="M24.8221 28.6671C24.5621 28.6671 24.3121 28.4971 24.2421 28.2271L23.0321 23.8971C22.9421 23.5771 23.1321 23.2471 23.4521 23.1571C23.7721 23.0671 24.1021 23.2571 24.1921 23.5771L25.4021 27.9071C25.4921 28.2271 25.3021 28.5571 24.9821 28.6471C24.9321 28.6671 24.8721 28.6671 24.8221 28.6671Z" fill="black"/>
  <path d="M20.0217 29.3178C19.7317 29.3178 19.4717 29.1078 19.4217 28.8078L18.7217 24.1978C18.6717 23.8678 18.9017 23.5578 19.2317 23.5078C19.5517 23.4578 19.8717 23.6878 19.9217 24.0178L20.6217 28.6278C20.6717 28.9578 20.4417 29.2678 20.1117 29.3178C20.0817 29.3178 20.0517 29.3178 20.0217 29.3178Z" fill="black"/>
  <path d="M28.8022 26.5077C28.5622 26.5077 28.3322 26.3577 28.2422 26.1277L27.1722 23.3877C27.0522 23.0777 27.2022 22.7277 27.5122 22.6077C27.8222 22.4877 28.1722 22.6377 28.2922 22.9477L29.3622 25.6877C29.4822 25.9977 29.3322 26.3477 29.0222 26.4677C28.9522 26.4977 28.8722 26.5077 28.8022 26.5077Z" fill="black"/>
  <path d="M6.35307 11.1677C6.03307 11.1677 5.77307 10.9177 5.75307 10.5977C5.73307 10.2677 5.98307 9.97769 6.32307 9.95769C6.38307 9.95769 8.00308 9.80769 9.19308 7.8977C10.3931 5.97769 9.57307 3.9877 9.54307 3.8977C9.41307 3.5877 9.55307 3.2377 9.86307 3.1077C10.1731 2.9777 10.5231 3.1077 10.6531 3.4177C10.7031 3.5277 11.7631 6.0577 10.2231 8.5277C8.68307 10.9977 6.49307 11.1477 6.39307 11.1577C6.38307 11.1577 6.37307 11.1577 6.35307 11.1577V11.1677Z" fill="black"/>
  <path d="M37.543 34.4573C37.063 34.4573 36.573 34.3073 36.153 34.0273C35.613 33.6573 35.223 33.1073 35.053 32.4773L32.793 23.8373L33.963 23.5373L36.223 32.1773C36.343 32.6173 36.623 32.8873 36.833 33.0373C37.183 33.2773 37.593 33.3273 37.963 33.1773C38.283 33.0473 38.503 32.7873 38.573 32.4573L39.633 27.2973C39.773 26.6273 40.203 26.0773 40.803 25.7673L45.513 23.4073C45.813 23.2573 46.013 22.9773 46.053 22.6273C46.103 22.2373 45.943 21.8473 45.623 21.5673C45.423 21.3973 45.103 21.1973 44.653 21.1973L36.033 21.2473V20.0373L44.653 19.9873H44.673C45.313 19.9873 45.943 20.2173 46.433 20.6473C47.053 21.1873 47.373 21.9773 47.273 22.7673C47.183 23.5073 46.733 24.1373 46.083 24.4673L41.373 26.8273C41.093 26.9673 40.903 27.2173 40.843 27.5273L39.783 32.6873C39.633 33.4073 39.133 33.9973 38.443 34.2773C38.163 34.3873 37.863 34.4473 37.573 34.4473L37.543 34.4573Z" fill="black"/>
  <path d="M30.562 12.9373C30.212 12.9373 29.972 12.8873 29.952 12.8773L30.212 11.6973C30.212 11.6973 31.452 11.9373 32.072 10.9573C32.962 9.53728 34.042 5.49728 32.502 4.13728C31.352 3.12728 26.352 4.28728 23.162 5.43728L22.752 4.30728C24.142 3.80728 31.202 1.38728 33.292 3.23728C35.532 5.21728 34.032 10.0873 33.082 11.6073C32.372 12.7473 31.252 12.9473 30.562 12.9473V12.9373Z" fill="black"/>
  <path d="M9.54152 26.3673C9.45152 26.3673 9.35152 26.3673 9.26152 26.3373C7.53152 25.9773 7.76152 21.8973 8.04152 19.4873L9.24151 19.6273C8.93151 22.2473 9.06152 24.8773 9.52152 25.1573C9.96152 25.2573 11.0215 23.6473 11.6415 21.8573L12.7815 22.2573C12.4315 23.2573 11.2115 26.3673 9.54152 26.3673Z" fill="black"/>
  <path d="M6.35234 6.61777C7.15315 6.61777 7.80235 5.96859 7.80235 5.16777C7.80235 4.36696 7.15315 3.71777 6.35234 3.71777C5.55153 3.71777 4.90234 4.36696 4.90234 5.16777C4.90234 5.96859 5.55153 6.61777 6.35234 6.61777Z" fill="black"/>
  <path d="M36.2431 23.3778C36.0931 23.3778 35.9431 23.3278 35.8331 23.2178C35.7531 23.1478 28.2031 16.0578 21.4731 11.8978C16.5831 8.86775 12.5331 7.71775 12.4931 7.70775C12.1731 7.61775 11.9831 7.28775 12.0731 6.96775C12.1631 6.64775 12.4931 6.45775 12.8131 6.54775C12.9831 6.59775 17.0631 7.75775 22.1031 10.8778C28.9331 15.1078 36.5731 22.2778 36.6531 22.3478C36.8931 22.5778 36.9031 22.9578 36.6831 23.1978C36.5631 23.3278 36.4031 23.3878 36.2431 23.3878V23.3778Z" fill="black"/>
</svg>