<svg xmlns="http://www.w3.org/2000/svg" width="43" height="46" viewBox="0 0 43 46" fill="none">
  <path d="M3.07336 34.2434C3.07336 34.2434 4.95336 34.8434 6.44336 34.5234C7.93336 34.2034 10.3234 32.9034 10.3234 32.9034L10.8534 31.0934L11.9834 29.8134L12.6634 27.9934L11.4834 25.6534L7.30336 24.9034L5.59335 23.9434L3.27336 24.3934L1.77336 25.8934L1.01335 27.6334L1.64336 30.2234L0.933365 30.6934L0.693359 31.6034L1.38336 33.4034L3.08336 34.2334L3.07336 34.2434Z" fill="#59A9FC"/>
  <path d="M8.98398 39.0334C9.48103 39.0334 9.88399 38.6305 9.88399 38.1334C9.88399 37.6363 9.48103 37.2334 8.98398 37.2334C8.48692 37.2334 8.08398 37.6363 8.08398 38.1334C8.08398 38.6305 8.48692 39.0334 8.98398 39.0334Z" fill="black"/>
  <path d="M8.994 39.7032C8.934 39.7032 8.874 39.7032 8.824 39.7032C8.404 39.6532 8.03399 39.4532 7.76399 39.1232C7.49399 38.7932 7.38399 38.3832 7.42399 37.9632C7.47399 37.5432 7.67399 37.1732 8.00399 36.9032C8.33399 36.6432 8.744 36.5232 9.164 36.5632C9.584 36.6132 9.954 36.8132 10.224 37.1432C10.494 37.4732 10.604 37.8832 10.564 38.3032C10.514 38.7232 10.314 39.0932 9.98399 39.3632C9.70399 39.5932 9.35399 39.7132 9.00399 39.7132L8.994 39.7032ZM8.994 37.9032C8.884 37.9032 8.784 37.9832 8.774 38.1032C8.764 38.2232 8.844 38.3332 8.974 38.3432C9.104 38.3532 9.204 38.2732 9.214 38.1432C9.224 38.0232 9.14399 37.9132 9.01399 37.9032H8.994Z" fill="black"/>
  <path d="M22.7427 28.7034C22.3727 28.7034 22.0727 28.4034 22.0627 28.0334C22.0627 27.9234 22.0727 26.9034 22.8427 26.3134C23.3627 25.9134 24.0327 25.8334 24.8627 26.0534L25.3027 26.1734C27.2527 26.7134 29.9127 27.4534 33.5027 26.6234C39.3127 25.2734 41.3427 19.3434 41.5327 17.9434C41.5827 17.5534 41.5327 17.2934 41.3927 17.1734C41.2627 17.0634 40.6927 16.7534 38.7727 17.3434C38.5627 17.4034 38.4027 17.4734 38.2527 17.5334C37.4427 17.8634 36.9127 18.0134 34.6427 17.4834C30.4027 16.4934 29.0027 17.0434 27.8827 17.4834C27.3427 17.6934 26.8426 17.8934 26.1526 17.8934C25.9126 17.8734 25.2627 17.8934 24.9327 17.4034C24.5927 16.9134 24.8027 16.3634 25.0727 15.6734C25.3927 14.8534 25.8627 13.6034 25.7427 11.8534C25.5627 9.18337 23.6227 6.31337 23.6027 6.28337L23.4527 6.05337L23.5027 5.78337C23.8127 3.99337 23.8027 1.73337 23.3027 1.36337C23.2427 1.33337 22.9427 1.29337 22.3227 1.51337C20.6027 2.14337 17.5427 4.50338 16.1427 8.41337C14.9827 11.6634 15.9027 16.0134 16.5727 19.1934C17.0427 21.4334 17.2627 22.5434 16.9827 23.2434C16.3527 24.8034 15.3127 25.2334 13.4327 26.0134C13.1427 26.1334 12.8227 26.2634 12.4827 26.4134C12.4527 26.4234 12.4227 26.4434 12.3927 26.4534L12.3527 26.4734C12.0227 26.6434 11.6127 26.5134 11.4427 26.1834C11.3827 26.0734 11.3627 25.9634 11.3727 25.8534L11.2227 25.5134L12.4827 24.9234L12.5027 24.9534C12.6527 24.8934 12.7927 24.8334 12.9327 24.7734C14.8327 23.9834 15.3427 23.7334 15.7427 22.7434C15.8827 22.3834 15.5426 20.7734 15.2626 19.4834C14.5626 16.1534 13.6027 11.5834 14.8827 7.97337C16.3327 3.90337 19.7127 0.903374 22.1427 0.163374C23.1927 -0.156626 23.7927 0.0533745 24.1127 0.283374C25.4427 1.25337 25.1027 4.44337 24.8927 5.76337C25.3927 6.55337 26.9327 9.16338 27.1127 11.7634C27.2527 13.8234 26.6927 15.2934 26.3527 16.1634C26.3027 16.2834 26.2527 16.4134 26.2127 16.5334C26.6227 16.5334 26.9526 16.3934 27.4026 16.2134C28.6326 15.7334 30.3127 15.0734 34.9627 16.1534C36.9127 16.6034 37.2127 16.4834 37.7527 16.2634C37.9327 16.1934 38.1327 16.1134 38.3827 16.0334C40.2527 15.4634 41.5227 15.4934 42.2727 16.1334C42.6327 16.4334 43.0227 17.0334 42.8827 18.1234C42.6527 19.8034 40.4427 26.4034 33.8227 27.9434C29.8927 28.8534 26.9227 28.0234 24.9527 27.4734L24.5227 27.3534C24.2527 27.2834 23.8927 27.2234 23.6927 27.3734C23.4827 27.5334 23.4327 27.9034 23.4327 28.0234C23.4327 28.3934 23.1227 28.6934 22.7527 28.6934L22.7427 28.7034Z" fill="black"/>
  <path d="M7.70457 44.6929C5.76457 44.6929 4.09458 44.2529 3.04458 43.2329C0.984584 41.2329 0.574572 37.8229 1.95457 34.1229C2.08457 33.7729 2.47458 33.5929 2.82458 33.7229C3.17458 33.8529 3.35458 34.2429 3.22458 34.5929C2.31458 37.0429 2.03458 40.3529 3.99458 42.2529C5.97458 44.1729 12.0346 43.4429 16.9646 40.6829C21.3946 38.2129 23.7146 34.3829 22.8846 30.9329C22.3346 28.6429 20.8646 28.1529 20.8046 28.1329C20.4546 28.0229 20.2546 27.6429 20.3646 27.2829C20.4746 26.9229 20.8446 26.7229 21.1946 26.8329C21.2846 26.8629 23.4646 27.5329 24.2046 30.6129C25.1746 34.6629 22.5946 39.0829 17.6246 41.8529C14.6146 43.5329 10.8246 44.6729 7.70457 44.6729V44.6929Z" fill="black"/>
  <path d="M6.01264 35.3136C5.42264 35.3136 5.03264 35.2536 4.98264 35.2436C4.61264 35.1836 4.36264 34.8336 4.42264 34.4636C4.48264 34.0936 4.84264 33.8436 5.20264 33.9036C5.25264 33.9036 7.61264 34.2636 9.34264 32.9636C10.5526 32.0536 10.6126 31.0536 10.6126 31.0136L10.6326 30.6736L10.9126 30.4736C10.9826 30.4236 12.7226 29.2136 12.0826 27.7136C11.4126 26.1436 9.87265 26.2136 9.52264 26.3136L8.99265 26.4636L8.73264 25.9736C8.69264 25.8936 7.59264 23.9736 4.44264 25.0536C2.94264 25.5736 2.27263 26.8836 2.15263 27.9336C2.05263 28.7536 2.28264 29.4636 2.72264 29.7536C3.71264 30.3836 4.31264 30.2936 4.34264 30.2836C4.70264 30.2236 5.06265 30.4536 5.13265 30.8136C5.20265 31.1736 4.99265 31.5236 4.63265 31.6036C4.52265 31.6336 3.48264 31.8336 2.00264 30.8936C1.11264 30.3236 0.652638 29.1336 0.812638 27.7736C0.982638 26.3136 1.91264 24.4936 4.00264 23.7736C7.00264 22.7436 8.87264 23.9036 9.66264 24.9136C10.7626 24.8336 12.5126 25.2436 13.3326 27.1736C14.1226 29.0336 12.8726 30.6536 11.9226 31.4036C11.8126 31.9636 11.4326 33.0736 10.1526 34.0436C8.73263 35.1136 7.05264 35.3036 6.00264 35.3036L6.01264 35.3136Z" fill="black"/>
  <path d="M2.58361 35.0434C2.51361 35.0434 2.45361 35.0334 2.38361 35.0134C1.48361 34.7334 -0.166397 33.6534 0.0136027 31.5534C0.173603 29.6034 1.4336 29.5434 1.4836 29.5434C1.8636 29.5034 2.17362 29.8234 2.18362 30.2034C2.19362 30.5534 1.94361 30.8434 1.61361 30.8934C1.55361 30.9334 1.41361 31.1434 1.36361 31.6734C1.23361 33.1734 2.63362 33.6734 2.79362 33.7234C3.14362 33.8434 3.3436 34.2134 3.2336 34.5734C3.1436 34.8634 2.8736 35.0434 2.5936 35.0434H2.58361Z" fill="black"/>
  <path d="M5.57396 24.0637C5.24396 24.0637 4.95395 23.8237 4.90395 23.4937C4.88395 23.3737 4.47395 20.5937 5.40395 17.3637C6.02395 15.2537 7.10395 14.5237 7.90395 14.2937C8.75395 14.0437 9.67396 14.2437 10.324 14.8037C10.904 15.3137 11.154 15.8937 11.374 16.4137C11.5539 16.8437 11.714 17.2037 12.044 17.5437L12.234 17.7337C13.104 18.6237 14.424 19.9637 14.544 22.3637C14.564 22.7337 14.2739 23.0537 13.9039 23.0737C13.5639 23.0737 13.214 22.8037 13.194 22.4337C13.104 20.5537 12.084 19.5137 11.274 18.6837L11.084 18.4837C10.584 17.9637 10.354 17.4237 10.144 16.9437C9.95395 16.4837 9.79396 16.1337 9.44396 15.8237C9.21396 15.6237 8.78396 15.4537 8.29396 15.5937C7.61396 15.7937 7.05395 16.5537 6.70395 17.7437C5.85395 20.6737 6.23395 23.2637 6.23395 23.2837C6.29395 23.6537 6.03396 24.0037 5.66396 24.0537C5.62396 24.0537 5.59395 24.0537 5.56395 24.0537L5.57396 24.0637Z" fill="black"/>
  <path d="M8.82284 25.4733C8.82284 25.4733 8.78282 25.4733 8.76282 25.4733C8.39282 25.4433 8.11283 25.1133 8.14283 24.7433C8.34283 22.3533 9.29282 19.9333 9.34282 19.8333C9.48282 19.4833 9.87283 19.3133 10.2228 19.4533C10.5728 19.5933 10.7428 19.9833 10.6028 20.3333C10.6028 20.3533 9.68283 22.6733 9.50283 24.8533C9.47283 25.2033 9.17283 25.4733 8.83283 25.4733H8.82284Z" fill="black"/>
  <path d="M25.9128 45.7034C24.9528 45.7034 23.9628 45.6234 23.0028 45.4634C18.7728 44.7334 16.0828 42.6834 15.9728 42.5934C15.6728 42.3634 15.6228 41.9434 15.8528 41.6434C16.0828 41.3434 16.5028 41.2934 16.8028 41.5234C16.8328 41.5434 19.3628 43.4634 23.2428 44.1234C27.5328 44.8634 31.6228 43.6334 32.2828 42.4434C32.7328 41.6434 32.4828 41.2934 31.3328 40.2534C30.6728 39.6534 29.9228 38.9734 29.4428 37.9934C28.3628 35.8134 25.6228 35.2334 25.5928 35.2234C25.2228 35.1534 24.9928 34.7934 25.0628 34.4234C25.1328 34.0534 25.4828 33.8234 25.8628 33.8934C26.0028 33.9234 29.2828 34.6034 30.6628 37.3934C31.0328 38.1434 31.6528 38.7034 32.2528 39.2434C33.2528 40.1534 34.4928 41.2834 33.4728 43.1034C32.5928 44.6834 29.4028 45.7034 25.9328 45.7034H25.9128Z" fill="black"/>
  <path d="M26.9931 41.5735C26.8931 41.5735 26.7931 41.5535 26.7031 41.5035L21.8431 39.1835C21.5031 39.0235 21.3631 38.6135 21.5231 38.2835C21.6831 37.9435 22.0831 37.8035 22.4231 37.9635L27.2831 40.2835C27.6231 40.4435 27.7631 40.8535 27.6031 41.1835C27.4831 41.4235 27.2431 41.5735 26.9931 41.5735Z" fill="black"/>
  <path d="M23.7032 24.3337C23.3632 24.3337 23.0632 24.0737 23.0332 23.7237C22.9932 23.3537 23.2632 23.0237 23.6332 22.9837L33.1132 22.0137C33.4932 21.9737 33.8132 22.2437 33.8532 22.6137C33.8932 22.9837 33.6232 23.3137 33.2532 23.3537L23.7732 24.3237C23.7732 24.3237 23.7232 24.3237 23.7032 24.3237V24.3337Z" fill="black"/>
  <path d="M19.6644 21.2238C19.6644 21.2238 19.6344 21.2238 19.6144 21.2238C19.2444 21.1938 18.9644 20.8738 18.9944 20.4938L19.7044 10.9938C19.7344 10.6238 20.0644 10.3338 20.4344 10.3738C20.8044 10.4038 21.0844 10.7238 21.0544 11.1038L20.3444 20.6038C20.3144 20.9638 20.0244 21.2338 19.6744 21.2338L19.6644 21.2238Z" fill="black"/>
  <path d="M21.9335 22.6832C21.7635 22.6832 21.5935 22.6232 21.4635 22.4932C21.1935 22.2332 21.1935 21.8032 21.4535 21.5332L23.7335 19.1832C23.9935 18.9132 24.4235 18.9032 24.6935 19.1732C24.9635 19.4332 24.9635 19.8632 24.7035 20.1332L22.4235 22.4832C22.2935 22.6232 22.1135 22.6932 21.9335 22.6932V22.6832Z" fill="black"/>
</svg>