<svg xmlns="http://www.w3.org/2000/svg" width="48" height="43" viewBox="0 0 48 43" fill="none">
  <path d="M35.239 20.8236C34.189 20.6136 32.549 20.4836 32.959 18.6836C33.369 16.8836 38.129 16.3736 38.929 18.3836C39.869 20.7536 36.689 20.5336 37.309 21.1736C37.739 21.6236 39.789 21.7136 39.789 23.3036C39.789 24.8936 35.169 24.8236 35.029 23.3036C34.889 21.7836 35.959 21.9936 35.929 21.3736C35.899 20.8836 35.459 20.8636 35.239 20.8236Z" fill="#59A9FC"/>
  <path d="M30.8889 16.3835C31.999 16.3835 32.8989 15.7612 32.8989 14.9935C32.8989 14.2258 31.999 13.6035 30.8889 13.6035C29.7788 13.6035 28.8789 14.2258 28.8789 14.9935C28.8789 15.7612 29.7788 16.3835 30.8889 16.3835Z" fill="#59A9FC"/>
  <path d="M35.7484 11.2432C35.4084 11.5932 34.7784 12.3732 34.9184 13.2332C35.1384 14.6232 37.1784 15.1932 37.9484 15.4032C39.1484 15.7332 40.1884 15.6532 40.8184 15.5632C40.6084 14.9932 40.0684 13.7532 38.7984 12.6932C37.5884 11.6832 36.3484 11.3632 35.7484 11.2532V11.2432Z" fill="#59A9FC"/>
  <path d="M23.0201 15.9331C25.4722 15.9331 27.4601 14.7064 27.4601 13.1931C27.4601 11.6799 25.4722 10.4531 23.0201 10.4531C20.5679 10.4531 18.5801 11.6799 18.5801 13.1931C18.5801 14.7064 20.5679 15.9331 23.0201 15.9331Z" fill="#59A9FC"/>
  <path d="M27.1086 10.3232C27.1086 10.3232 27.0286 10.3232 26.9886 10.3132C26.6586 10.2432 26.4486 9.92324 26.5186 9.60324C26.8686 7.89324 27.3686 3.14324 25.4886 1.75324C24.7686 1.22324 23.9686 1.07324 23.1086 1.33324C21.5886 1.78324 20.3086 3.34324 19.8286 4.65324C19.2686 6.16324 19.1886 8.41324 19.1886 8.43324C19.1786 8.76324 18.8986 9.00324 18.5686 9.01324C18.2386 9.00324 17.9786 8.72324 17.9886 8.39324C17.9886 8.29324 18.0786 5.92324 18.7086 4.23324C19.2786 2.69324 20.7886 0.763241 22.7786 0.173241C23.9986 -0.186759 25.1886 0.0132409 26.2186 0.783241C29.1086 2.91324 27.7786 9.56324 27.7186 9.84324C27.6586 10.1232 27.4086 10.3232 27.1286 10.3232H27.1086Z" fill="black"/>
  <path d="M16.6291 30.3632C14.7891 30.3632 11.5591 29.9632 10.4991 27.3132C9.25908 24.2232 10.7391 21.5532 12.7591 20.6032C13.0591 20.4632 13.4191 20.5932 13.5591 20.8932C13.6991 21.1932 13.5691 21.5532 13.2691 21.6932C12.0091 22.2832 10.5291 24.1432 11.6091 26.8632C12.7391 29.6932 17.7191 29.0932 17.7691 29.0932C18.1091 29.0532 18.3991 29.2832 18.4391 29.6132C18.4791 29.9432 18.2491 30.2432 17.9191 30.2832C17.8491 30.2832 17.3391 30.3532 16.6091 30.3532L16.6291 30.3632Z" fill="black"/>
  <path d="M27.1994 29.7331C24.5694 29.7331 22.4395 27.5931 22.4395 24.9631C22.4395 22.3331 24.5794 20.2031 27.1994 20.2031C29.8194 20.2031 31.9695 22.3431 31.9695 24.9631C31.9695 27.5831 29.8294 29.7331 27.1994 29.7331ZM27.1994 21.4131C25.2394 21.4131 23.6395 23.0131 23.6395 24.9731C23.6395 26.9331 25.2394 28.5331 27.1994 28.5331C29.1594 28.5331 30.7594 26.9331 30.7594 24.9731C30.7594 23.0131 29.1594 21.4131 27.1994 21.4131Z" fill="black"/>
  <path d="M32.2993 39.543C27.9993 39.543 23.5393 37.703 20.1693 34.123C16.8493 30.593 15.2193 26.013 15.4993 21.653C15.4293 21.603 15.3693 21.543 15.3293 21.463C15.2993 21.413 12.2893 16.403 9.36927 15.693C8.57927 15.503 8.06927 15.693 7.42927 15.923C6.54927 16.253 5.44927 16.653 3.53927 16.013C0.949268 15.153 -0.320718 12.313 0.0692817 8.23299C0.229282 6.54299 1.30928 4.17299 3.04928 2.90299C4.07928 2.15299 5.21927 1.89299 6.35927 2.14299C8.94928 2.72299 10.0093 4.98299 10.9393 6.98299C11.2393 7.62299 11.5293 8.23299 11.8493 8.77299C12.9393 10.593 14.6793 11.333 17.2893 11.093C18.3893 10.993 19.8393 10.623 21.3693 10.243C23.1793 9.78299 25.2293 9.27299 27.0693 9.11299C32.4193 8.66299 37.5493 10.593 41.1393 14.413C43.7593 17.203 45.3893 20.733 45.7493 24.393C46.9493 25.663 47.5093 27.473 47.2493 29.293C46.9193 31.583 45.3793 33.433 43.2793 34.063C42.7793 34.763 42.2293 35.393 41.6393 35.943C39.0693 38.353 35.7393 39.533 32.3093 39.533L32.2993 39.543ZM17.3993 16.073C17.4893 16.073 17.5793 16.093 17.6593 16.133C17.9593 16.273 18.0793 16.643 17.9393 16.933C15.4393 22.083 16.6893 28.663 21.0393 33.293C26.6393 39.243 35.4993 40.043 40.7993 35.063C41.3793 34.513 41.9193 33.883 42.3993 33.193L42.5293 33.013L42.7493 32.953C44.4493 32.523 45.7693 30.983 46.0393 29.113C46.2593 27.603 45.7693 26.093 44.7293 25.093L44.5693 24.933L44.5493 24.713C44.2593 21.243 42.7293 17.883 40.2393 15.243C36.8993 11.693 32.1293 9.90299 27.1493 10.323C25.4093 10.473 23.4993 10.953 21.6493 11.423C20.0693 11.823 18.5793 12.193 17.3793 12.303C14.2893 12.583 12.1393 11.633 10.7993 9.40299C10.4493 8.81299 10.1293 8.14299 9.82928 7.50299C8.92928 5.58299 8.08928 3.77299 6.07928 3.33299C5.27928 3.15299 4.49928 3.34299 3.73928 3.89299C2.29928 4.94299 1.37927 6.98299 1.24927 8.36299C1.05927 10.403 1.13927 13.963 3.89927 14.883C5.40927 15.383 6.17928 15.103 6.98928 14.803C7.68928 14.543 8.48927 14.253 9.63927 14.533C12.1893 15.153 14.5993 18.253 15.7193 19.873C15.9493 18.683 16.3193 17.523 16.8593 16.423C16.9593 16.213 17.1793 16.083 17.3993 16.083V16.073Z" fill="black"/>
  <path d="M27.1997 26.7324C28.1772 26.7324 28.9697 25.9399 28.9697 24.9624C28.9697 23.9848 28.1772 23.1924 27.1997 23.1924C26.2221 23.1924 25.4297 23.9848 25.4297 24.9624C25.4297 25.9399 26.2221 26.7324 27.1997 26.7324Z" fill="black"/>
  <path d="M27.2001 27.3428C25.8901 27.3428 24.8301 26.2728 24.8301 24.9628C24.8301 23.6528 25.9001 22.5928 27.2001 22.5928C28.5001 22.5928 29.5801 23.6628 29.5801 24.9628C29.5801 26.2628 28.5101 27.3428 27.2001 27.3428ZM27.2001 23.8028C26.5601 23.8028 26.0301 24.3228 26.0301 24.9728C26.0301 25.6228 26.5501 26.1428 27.2001 26.1428C27.8501 26.1428 28.3701 25.6228 28.3701 24.9728C28.3701 24.3228 27.8501 23.8028 27.2001 23.8028Z" fill="black"/>
  <path d="M41.3094 32.7431C41.2194 32.7431 41.1294 32.7231 41.0394 32.6731C40.0894 32.1931 39.0194 30.2331 39.5594 27.9631C40.0894 25.7031 42.2994 23.6331 44.9294 24.2031C45.2594 24.2731 45.4594 24.5931 45.3894 24.9231C45.3194 25.2531 44.9994 25.4531 44.6694 25.3831C42.7494 24.9631 41.1294 26.5431 40.7294 28.2431C40.2994 30.0531 41.1794 31.4031 41.5894 31.6031C41.8894 31.7531 41.9994 32.1131 41.8494 32.4131C41.7394 32.6231 41.5294 32.7431 41.3094 32.7431Z" fill="black"/>
  <path d="M44.4417 29.0695C44.6641 28.1289 44.3476 27.249 43.7349 27.1042C43.1222 26.9593 42.4452 27.6044 42.2229 28.545C42.0006 29.4856 42.317 30.3655 42.9297 30.5103C43.5425 30.6551 44.2194 30.0101 44.4417 29.0695Z" fill="black"/>
  <path d="M43.1187 31.1437C43.0187 31.1437 42.9087 31.1337 42.8087 31.1037C42.3187 30.9837 41.9187 30.6037 41.7187 30.0437C41.5487 29.5637 41.5287 28.9837 41.6587 28.4237C41.9587 27.1437 42.9487 26.3237 43.8987 26.5337C44.3887 26.6537 44.7887 27.0437 44.9887 27.6037C45.1587 28.0837 45.1787 28.6637 45.0487 29.2237C44.9187 29.7937 44.6387 30.2937 44.2687 30.6437C43.9287 30.9737 43.5187 31.1437 43.1287 31.1437H43.1187ZM43.5687 27.7037C43.3487 27.7037 42.9687 28.0637 42.8187 28.6937C42.7387 29.0337 42.7487 29.3737 42.8387 29.6337C42.8987 29.8037 42.9887 29.9137 43.0787 29.9337C43.1687 29.9537 43.2987 29.8937 43.4287 29.7737C43.6287 29.5837 43.7887 29.2837 43.8687 28.9437C43.9487 28.6037 43.9387 28.2637 43.8487 28.0037C43.7887 27.8337 43.6987 27.7237 43.6087 27.7037C43.5987 27.7037 43.5787 27.7037 43.5687 27.7037Z" fill="black"/>
  <path d="M39.7505 37.456C40.0686 35.3481 38.2988 33.3333 35.7977 32.9559C33.2965 32.5786 31.0111 33.9815 30.6931 36.0894C30.375 38.1974 32.1448 40.2122 34.6459 40.5895C37.1471 40.9669 39.4325 39.564 39.7505 37.456Z" fill="#F2F2F2"/>
  <path d="M35.4601 41.2531C35.1701 41.2531 34.8701 41.2331 34.5601 41.1831C33.2101 40.9831 32.0101 40.3431 31.1701 39.3831C30.3101 38.3931 29.9301 37.1931 30.1101 35.9931C30.2901 34.7931 31.0101 33.7531 32.1201 33.0731C33.2101 32.4031 34.5502 32.1531 35.8902 32.3531C38.7102 32.7831 40.7101 35.1031 40.3401 37.5431C40.0101 39.7131 37.9101 41.2531 35.4501 41.2531H35.4601ZM34.9901 33.4931C34.1801 33.4931 33.4001 33.7031 32.7501 34.1031C31.9401 34.6031 31.4201 35.3431 31.3001 36.1831C31.1801 37.0231 31.4501 37.8831 32.0701 38.5931C32.7201 39.3331 33.6701 39.8331 34.7401 39.9931C36.9001 40.3231 38.8901 39.1431 39.1601 37.3631C39.4301 35.5831 37.8801 33.8731 35.7201 33.5431C35.4801 33.5031 35.2301 33.4931 34.9901 33.4931Z" fill="black"/>
  <path d="M33.6094 36.0527C33.7594 36.2427 34.2394 36.7927 35.0794 37.0227C35.9094 37.2427 36.5894 37.0227 36.8194 36.9327" fill="white"/>
  <path d="M35.8088 37.7329C35.5388 37.7329 35.2388 37.7029 34.9188 37.6129C33.9688 37.3529 33.3888 36.7629 33.1288 36.4329C32.9188 36.1729 32.9688 35.7929 33.2288 35.5829C33.4888 35.3729 33.8688 35.4229 34.0788 35.6829C34.2488 35.8929 34.6288 36.2829 35.2388 36.4429C35.8488 36.6029 36.3587 36.4729 36.6087 36.3729C36.9187 36.2529 37.2688 36.4129 37.3888 36.7229C37.5088 37.0329 37.3488 37.3829 37.0388 37.5029C36.7788 37.6029 36.3488 37.7229 35.8088 37.7229V37.7329Z" fill="black"/>
  <path d="M25.0997 42.0829C24.9597 42.0829 24.8197 42.0829 24.6797 42.0529C23.8297 41.9529 23.4197 41.4929 23.2297 41.1229C22.5097 39.7329 23.7297 37.3729 23.8697 37.1129C24.0297 36.8229 24.3897 36.7129 24.6897 36.8629C24.9797 37.0229 25.0897 37.3829 24.9397 37.6829C24.4897 38.5229 23.9997 39.9829 24.3097 40.5729C24.3697 40.6829 24.4797 40.8229 24.8397 40.8629C26.7997 41.0929 28.3697 38.6529 28.3897 38.6329C28.5697 38.3529 28.9397 38.2629 29.2197 38.4429C29.4997 38.6229 29.5897 38.9929 29.4097 39.2729C29.3297 39.3929 27.6097 42.0829 25.1197 42.0829H25.0997Z" fill="black"/>
  <path d="M23.3794 10.6137C23.0994 10.6137 22.8393 10.4137 22.7893 10.1237L21.8794 5.27369C21.8194 4.94369 22.0294 4.63369 22.3594 4.57369C22.6894 4.51369 22.9993 4.72369 23.0593 5.05369L23.9694 9.90369C24.0294 10.2337 23.8194 10.5437 23.4894 10.6037C23.4494 10.6037 23.4194 10.6137 23.3794 10.6137Z" fill="black"/>
  <path d="M15.9199 26.0633C15.9199 26.0633 15.8499 26.0633 15.8099 26.0633L13.0799 25.5733C12.7499 25.5133 12.5299 25.2033 12.5899 24.8733C12.6499 24.5433 12.9599 24.3333 13.2899 24.3833L16.0199 24.8733C16.3499 24.9333 16.5699 25.2433 16.5099 25.5733C16.4599 25.8633 16.1999 26.0733 15.9199 26.0733V26.0633Z" fill="black"/>
  <path d="M9.47875 11.3931C9.33875 11.3931 9.19875 11.3431 9.08875 11.2531L4.65876 7.49313C4.40876 7.27313 4.37875 6.89313 4.58875 6.64313C4.80875 6.39313 5.18876 6.36313 5.43876 6.57313L9.86875 10.3331C10.1187 10.5531 10.1488 10.9331 9.93876 11.1831C9.81876 11.3231 9.64875 11.3931 9.47875 11.3931Z" fill="black"/>
  <path d="M6.92875 12.7934C6.83875 12.7934 6.75875 12.7734 6.67875 12.7334L3.82876 11.3934C3.52876 11.2534 3.39875 10.8934 3.53875 10.5934C3.67875 10.2934 4.03875 10.1634 4.33875 10.3034L7.18876 11.6434C7.48876 11.7834 7.61875 12.1434 7.47875 12.4434C7.37875 12.6634 7.15875 12.7934 6.92875 12.7934Z" fill="black"/>
</svg>