<svg xmlns="http://www.w3.org/2000/svg" width="56" height="55" viewBox="0 0 56 55" fill="none">
  <path d="M27.7627 37.5101C27.1327 36.4701 26.0827 37.1201 22.5627 36.1701C19.0427 35.2201 14.1827 34.2001 13.5827 34.3401C12.9827 34.4801 9.75273 36.7201 9.75273 36.7201L7.77273 39.8901L4.80273 44.4801L5.84273 45.4401C5.84273 45.4401 12.8227 45.6701 17.6127 44.1001C22.4027 42.5301 28.9527 39.4901 27.7527 37.5201L27.7627 37.5101Z" fill="#59A9FC"/>
  <path d="M21.3116 43.0702L18.6816 52.2602L19.9916 53.4302L25.3716 51.4702L30.5216 47.5402L34.0316 42.3502L25.9516 40.9902L21.3116 43.0702Z" fill="#59A9FC"/>
  <path d="M41.7411 37.6501C41.3511 37.6501 41.1311 37.6301 41.0911 37.6201C40.7411 37.5801 40.5011 37.2701 40.5411 36.9201C40.5811 36.5701 40.9011 36.3201 41.2411 36.3701C41.2711 36.3701 44.4311 36.7001 48.7411 34.3801C49.3511 34.0501 50.2311 33.9301 51.1611 33.8001C51.7011 33.7201 52.2611 33.6501 52.7311 33.5301C53.6211 33.3001 53.7811 33.0501 53.8011 33.0001C54.5011 31.4801 46.5011 23.9901 37.0211 17.3001C30.2011 12.4901 10.4811 1.29013 10.2811 1.18013C9.98107 1.01013 9.87107 0.620134 10.0411 0.320134C10.2111 0.0201344 10.6011 -0.0898673 10.9011 0.0801327C11.1011 0.190133 30.8811 11.4201 37.7511 16.2701C38.5211 16.8201 56.7111 29.7101 54.9511 33.5301C54.6911 34.1001 54.0911 34.4901 53.0511 34.7501C52.5211 34.8901 51.9211 34.9701 51.3411 35.0501C50.5611 35.1601 49.7611 35.2701 49.3511 35.4901C45.8011 37.4001 42.9711 37.6501 41.7511 37.6501H41.7411Z" fill="black"/>
  <path d="M7.7527 46.27C6.4527 46.27 5.5227 46.08 4.9527 45.71C4.5227 45.43 4.2627 45.04 4.1927 44.57C4.0027 43.35 5.0327 42.17 6.1127 40.93C6.7127 40.24 7.3327 39.53 7.6427 38.9C9.6827 34.79 12.4127 33.11 15.9927 33.76C17.2727 33.99 18.4427 34.36 19.5827 34.71C20.8027 35.09 21.9627 35.45 23.1427 35.62C25.3527 35.92 26.1327 35.87 26.1427 35.87C26.4727 35.85 26.7927 36.1 26.8227 36.44C26.8527 36.78 26.6027 37.09 26.2527 37.12C26.1627 37.12 25.3327 37.19 22.9727 36.87C21.6827 36.69 20.4827 36.32 19.2027 35.92C18.1027 35.58 16.9627 35.22 15.7627 35C12.7727 34.46 10.5527 35.87 8.7727 39.46C8.3827 40.24 7.7127 41.01 7.0627 41.76C6.2527 42.69 5.3327 43.74 5.4327 44.38C5.4427 44.46 5.4827 44.55 5.6427 44.66C6.8727 45.47 11.5427 44.91 18.1427 43.18C23.1127 41.88 25.6127 40.46 25.6427 40.45L25.8627 40.32L26.1127 40.39C26.1127 40.39 27.3827 40.73 29.4027 41.13C31.7127 41.6 36.9327 42.16 41.0927 41.67C44.9627 41.22 53.3427 36.56 54.1927 35.52C54.1427 35.25 53.5627 34.86 53.1427 34.71C52.8127 34.59 52.6527 34.22 52.7727 33.9C52.8927 33.57 53.2627 33.41 53.5827 33.53C53.8027 33.61 55.6827 34.37 55.4327 35.8C55.1527 37.42 45.0627 42.47 41.2327 42.92C36.9227 43.42 31.5327 42.84 29.1427 42.36C27.5827 42.04 26.4927 41.78 26.0227 41.66C25.2827 42.05 22.7927 43.25 18.4527 44.39C13.7027 45.64 10.1127 46.26 7.7427 46.26L7.7527 46.27Z" fill="black"/>
  <path d="M41.5315 33.9603C40.6515 33.9603 39.8115 33.6603 39.1215 33.1003C38.3215 32.4503 37.8315 31.5303 37.7215 30.5203C37.6115 29.5003 37.9115 28.5003 38.5615 27.7103C39.2115 26.9103 40.1215 26.4203 41.1415 26.3103C42.1615 26.2103 43.1615 26.5003 43.9515 27.1503C45.5915 28.4903 45.8415 30.9103 44.5115 32.5503C43.8615 33.3503 42.9415 33.8403 41.9215 33.9503C41.7915 33.9603 41.6515 33.9703 41.5215 33.9703L41.5315 33.9603ZM41.5415 27.4903C41.4515 27.4903 41.3615 27.4903 41.2615 27.5003C40.5615 27.5703 39.9315 27.9103 39.4915 28.4603C39.0515 29.0103 38.8415 29.6903 38.9115 30.3903C38.9815 31.0903 39.3215 31.7203 39.8715 32.1603C40.4215 32.6003 41.1015 32.8103 41.8015 32.7403C42.5015 32.6703 43.1315 32.3303 43.5715 31.7803C44.4915 30.6503 44.3215 28.9903 43.1915 28.0703C42.7215 27.6803 42.1415 27.4803 41.5315 27.4803L41.5415 27.4903Z" fill="black"/>
  <path d="M13.3611 41.97C12.4711 41.97 11.7611 41.9 11.1411 41.85C10.8611 41.82 10.5911 41.8 10.3411 41.78C9.99108 41.76 9.73108 41.46 9.75108 41.11C9.77108 40.76 10.0711 40.5 10.4211 40.52C10.6911 40.54 10.9711 40.56 11.2711 40.59C12.3511 40.69 13.6911 40.81 15.8711 40.54C17.9111 40.28 18.9411 39.9 20.4911 39.32L20.5811 39.28C20.9111 39.16 21.2711 39.32 21.3911 39.65C21.5111 39.98 21.3511 40.34 21.0211 40.46L20.9311 40.5C19.3511 41.09 18.2211 41.52 16.0311 41.79C14.9811 41.92 14.1211 41.97 13.3811 41.97H13.3611Z" fill="black"/>
  <path d="M16.7911 39.01C16.4911 39.01 16.1911 39.01 15.8911 38.99C14.8311 38.94 13.7611 38.79 12.7311 38.54C12.3911 38.46 12.1811 38.12 12.2611 37.78C12.3411 37.44 12.6811 37.23 13.0211 37.31C13.9811 37.54 14.9711 37.68 15.9611 37.73C16.7211 37.77 17.4911 37.75 18.2511 37.69C18.6011 37.64 18.9011 37.91 18.9311 38.26C18.9611 38.61 18.7111 38.91 18.3611 38.94C17.8411 38.99 17.3211 39.01 16.7911 39.01Z" fill="black"/>
  <path d="M27.0011 33.1698C26.6511 33.1698 26.3711 32.8898 26.3711 32.5398C26.3711 31.6298 26.5111 28.4398 28.5611 25.3498C30.5311 22.3898 32.9211 21.4698 33.8511 21.2198C34.1911 21.1298 34.5311 21.3298 34.6211 21.6598C34.7111 21.9998 34.5111 22.3398 34.1811 22.4298C33.5611 22.5998 31.3911 23.3598 29.6111 26.0398C27.7511 28.8298 27.6211 31.7098 27.6311 32.5298C27.6311 32.8798 27.3511 33.1598 27.0011 33.1598V33.1698Z" fill="black"/>
  <path d="M11.662 35.7202C11.592 35.7202 11.522 35.7102 11.452 35.6802C11.112 35.5602 2.99197 32.6902 0.141975 29.1902C-0.0780253 28.9202 -0.0380253 28.5202 0.231975 28.3002C0.501975 28.0802 0.901975 28.1202 1.12197 28.3902C3.74197 31.6102 11.782 34.4502 11.862 34.4802C12.192 34.5902 12.362 34.9502 12.252 35.2802C12.162 35.5402 11.922 35.7002 11.652 35.7002L11.662 35.7202Z" fill="black"/>
  <path d="M20.3026 54.0297C19.7526 54.0297 19.2526 53.9097 18.8626 53.6097C17.6126 52.6697 18.0826 51.3597 18.5826 49.9797C18.7926 49.3997 19.0326 48.7397 19.2126 47.9897C19.8826 45.2597 20.3726 44.5097 20.4626 44.3897C20.6626 44.1197 21.0426 44.0697 21.3026 44.2697C21.5726 44.4697 21.6226 44.8497 21.4226 45.1097C21.4226 45.1097 20.9926 45.7797 20.3726 48.2797C20.1726 49.0897 19.9226 49.7797 19.7026 50.3897C19.1726 51.8697 19.0826 52.2797 19.5726 52.6497C20.3926 53.2697 23.0226 52.3297 25.9926 50.3597C30.3326 47.4797 33.3526 42.5797 33.3826 42.5297C33.5526 42.2497 33.9226 42.1497 34.2126 42.3297C34.4926 42.4997 34.5826 42.8697 34.4126 43.1597C34.2826 43.3697 31.2226 48.3397 26.6626 51.3697C25.3026 52.2797 22.3726 54.0397 20.2926 54.0397L20.3026 54.0297Z" fill="black"/>
  <path d="M22.9826 50.0399C22.7726 50.0399 22.5626 49.9299 22.4526 49.7299C22.2926 49.4399 22.3926 49.0699 22.6926 48.9099C22.7226 48.8899 25.9026 47.1099 28.1026 44.3799C28.3126 44.1199 28.6926 44.0799 28.9526 44.2899C29.2126 44.4999 29.2526 44.8799 29.0426 45.1399C26.6926 48.0699 23.4126 49.8999 23.2726 49.9699C23.1826 50.0199 23.0826 50.0499 22.9826 50.0499V50.0399Z" fill="black"/>
  <path d="M23.8723 46.0305C23.6223 46.0305 23.3923 45.8805 23.3023 45.6305C23.1923 45.3205 23.3523 44.9705 23.6623 44.8605C23.6823 44.8605 25.2323 44.2805 26.1523 43.6005C26.4223 43.4005 26.7923 43.4605 26.9923 43.7205C27.1923 43.9905 27.1323 44.3605 26.8723 44.5605C25.8123 45.3505 24.1423 45.9605 24.0723 45.9905C24.0023 46.0105 23.9323 46.0305 23.8623 46.0305H23.8723Z" fill="black"/>
  <path d="M42.5824 30.2106C42.3224 30.3606 41.9924 30.2706 41.8424 30.0106C41.6924 29.7506 41.7824 29.4206 42.0424 29.2706L42.8124 28.8306C42.8124 28.8306 42.7324 28.7506 42.6924 28.7106C41.9124 28.0806 40.7724 28.1906 40.1324 28.9706C39.5024 29.7506 39.6124 30.8906 40.3924 31.5306C41.1724 32.1606 42.3124 32.0506 42.9524 31.2706C43.3024 30.8406 43.4124 30.2906 43.3224 29.7806L42.5824 30.2106Z" fill="black"/>
  <path d="M16.0723 22.5698C15.9123 22.5698 15.7623 22.5098 15.6323 22.3898C14.4723 21.2798 14.1623 19.5198 14.8723 18.1198C15.6723 16.5698 17.4823 15.8098 19.1923 16.3298C19.5223 16.4298 19.7123 16.7798 19.6123 17.1198C19.5123 17.4498 19.1623 17.6398 18.8223 17.5398C17.7223 17.2098 16.5023 17.6998 15.9923 18.6998C15.5223 19.6098 15.7323 20.7598 16.5023 21.4898C16.7523 21.7298 16.7623 22.1298 16.5223 22.3798C16.4023 22.5098 16.2323 22.5698 16.0723 22.5698Z" fill="black"/>
  <path d="M15.8028 27.6197C15.6428 27.6197 15.4928 27.5597 15.3628 27.4397C14.2028 26.3297 13.8928 24.5697 14.6028 23.1697C15.4028 21.6097 17.2128 20.8597 18.9228 21.3797C19.2528 21.4797 19.4428 21.8297 19.3428 22.1697C19.2428 22.4997 18.8928 22.6897 18.5528 22.5897C17.4428 22.2597 16.2328 22.7497 15.7228 23.7497C15.2528 24.6597 15.4628 25.8097 16.2328 26.5397C16.4828 26.7797 16.4928 27.1797 16.2528 27.4297C16.1328 27.5597 15.9628 27.6197 15.7928 27.6197H15.8028Z" fill="black"/>
  <path d="M21.6328 27.6197C21.4728 27.6197 21.3228 27.5597 21.1928 27.4397C20.0328 26.3297 19.7228 24.5697 20.4328 23.1697C21.2228 21.6097 23.0428 20.8597 24.7528 21.3797C25.0828 21.4797 25.2728 21.8297 25.1728 22.1697C25.0728 22.4997 24.7128 22.6897 24.3828 22.5897C23.2828 22.2597 22.0628 22.7497 21.5528 23.7397C21.0828 24.6497 21.2928 25.7997 22.0628 26.5297C22.3128 26.7697 22.3228 27.1697 22.0828 27.4197C21.9628 27.5497 21.7928 27.6097 21.6228 27.6097L21.6328 27.6197Z" fill="black"/>
  <path d="M13.6914 17.4302C13.5314 17.4302 13.3814 17.3702 13.2514 17.2502C12.0914 16.1402 11.7814 14.3802 12.4914 12.9802C13.2914 11.4202 15.1014 10.6702 16.8114 11.1902C17.1414 11.2902 17.3314 11.6402 17.2314 11.9802C17.1314 12.3102 16.7814 12.5002 16.4414 12.4002C15.3414 12.0702 14.1214 12.5602 13.6114 13.5602C13.1414 14.4702 13.3514 15.6202 14.1214 16.3502C14.3714 16.5902 14.3814 16.9902 14.1414 17.2402C14.0214 17.3702 13.8514 17.4302 13.6914 17.4302Z" fill="black"/>
  <path d="M7.09183 17.8803C6.93183 17.8803 6.78183 17.8203 6.65183 17.7003C5.49183 16.5903 5.18183 14.8303 5.89183 13.4303C6.69183 11.8803 8.50183 11.1203 10.2118 11.6403C10.5418 11.7403 10.7318 12.0903 10.6318 12.4303C10.5318 12.7603 10.1818 12.9503 9.84183 12.8503C8.74183 12.5203 7.52183 13.0103 7.01183 14.0103C6.54183 14.9203 6.75183 16.0703 7.52183 16.8003C7.77183 17.0403 7.78183 17.4403 7.54183 17.6903C7.42183 17.8203 7.25183 17.8803 7.09183 17.8803Z" fill="black"/>
  <path d="M9.80277 26.1499C9.64277 26.1499 9.49277 26.0899 9.36277 25.9699C8.20277 24.8599 7.89277 23.0999 8.60277 21.6999C9.40277 20.1499 11.2128 19.3899 12.9228 19.9099C13.2528 20.0099 13.4428 20.3599 13.3428 20.6999C13.2428 21.0299 12.8928 21.2199 12.5528 21.1199C11.4528 20.7899 10.2328 21.2799 9.72277 22.2799C9.25277 23.1899 9.46277 24.3399 10.2328 25.0699C10.4828 25.3099 10.4928 25.7099 10.2528 25.9599C10.1328 26.0899 9.96277 26.1499 9.80277 26.1499Z" fill="black"/>
</svg>