<svg xmlns="http://www.w3.org/2000/svg" width="45" height="49" viewBox="0 0 45 49" fill="none">
  <path d="M9.07031 21.1559C9.07031 21.1559 16.2103 22.9259 16.0403 20.9959C15.4403 14.1259 17.6603 9.78586 17.6603 9.78586C17.6603 9.78586 19.2203 17.3859 21.0303 17.5659C22.4203 17.7059 29.4003 7.00586 29.4003 7.00586C29.4003 7.00586 25.6003 16.0159 26.5003 17.0559C27.8103 18.5859 37.2003 12.1459 37.2003 12.1459C37.2003 12.1459 28.6803 20.1459 28.9703 20.6659C29.2603 21.1859 35.6703 19.5559 35.6703 19.5559L39.9103 18.6159C39.9103 18.6159 30.4803 23.2359 30.4203 24.1259C30.3703 24.8959 34.8103 26.4959 34.8103 26.4959C34.8103 26.4959 29.0903 27.5559 28.2903 28.4359C27.4903 29.3159 32.9803 31.7559 32.9803 31.7559L22.0203 29.8359C22.0203 29.8359 22.1103 24.9059 21.6603 24.1359C21.2103 23.3659 19.1903 25.6259 19.1903 25.6259L16.7803 27.2459L13.6903 24.1459L9.09031 21.1759L9.07031 21.1559Z" fill="#59A9FC"/>
  <path d="M25.9205 39.0754C25.9205 39.0754 25.4505 47.1754 22.0205 47.7854C20.1605 48.1154 13.9805 44.6354 13.9805 44.6354C13.9805 44.6354 15.9305 42.7754 16.9605 41.3354C17.5105 40.5754 18.3105 39.0654 18.3105 39.0654H25.9205V39.0754Z" fill="#59A9FC"/>
  <path d="M6.21059 35.2558C6.21059 35.2558 1.24059 34.0558 0.670588 32.5558C0.100588 31.0558 4.12058 28.8558 4.12058 28.8558L6.20059 27.2158L7.71059 33.9558L6.20059 35.2558H6.21059Z" fill="#59A9FC"/>
  <path d="M7.64094 44.3161C8.43071 44.3161 9.07094 43.6758 9.07094 42.8861C9.07094 42.0963 8.43071 41.4561 7.64094 41.4561C6.85117 41.4561 6.21094 42.0963 6.21094 42.8861C6.21094 43.6758 6.85117 44.3161 7.64094 44.3161Z" fill="black"/>
  <path d="M19.9593 37.0153C19.8893 37.0153 19.8193 37.0053 19.7493 36.9753C19.4393 36.8553 19.2793 36.5153 19.3993 36.1953C20.9093 32.1853 21.4093 29.9353 21.8793 27.6153C22.5693 24.1453 26.7893 20.0853 28.5693 18.5053C32.0293 15.4253 37.1693 11.3953 37.2193 11.3553C37.4793 11.1453 37.8593 11.1953 38.0693 11.4553C38.2793 11.7153 38.2293 12.0953 37.9693 12.3053C37.9193 12.3453 32.8093 16.3553 29.3793 19.4053C28.0593 20.5753 23.7093 24.6553 23.0693 27.8553C22.5993 30.2253 22.0793 32.5253 20.5393 36.6153C20.4493 36.8553 20.2193 37.0053 19.9793 37.0053L19.9593 37.0153Z" fill="black"/>
  <path d="M5.59028 48.7953C3.26028 48.7953 1.61028 47.9053 0.740283 46.9753C-0.869717 45.2553 0.140279 42.1553 3.83028 37.4953C5.95028 34.8153 10.8903 31.0053 13.6403 28.9653C16.1403 27.1153 18.7303 24.6153 18.7603 24.5853C19.0003 24.3553 19.3803 24.3553 19.6103 24.5953C19.8403 24.8353 19.8403 25.2153 19.6003 25.4453C19.4903 25.5553 16.9303 28.0253 14.3603 29.9253C11.6503 31.9253 6.81028 35.6653 4.77028 38.2353C1.65028 42.1753 0.53028 44.9853 1.62028 46.1353C4.78028 49.4853 11.0203 46.3353 13.8803 44.2053C14.1503 44.0053 14.5203 44.0653 14.7203 44.3253C14.9203 44.5953 14.8603 44.9653 14.6003 45.1653C10.9803 47.8653 7.94028 48.7753 5.59028 48.7753V48.7953Z" fill="black"/>
  <path d="M35.6705 20.8954C35.4505 20.8954 35.2305 20.7654 35.1305 20.5554C34.9905 20.2554 35.1105 19.8954 35.4105 19.7554C36.7205 19.1354 37.5205 18.8754 38.1705 18.6654C38.9905 18.4054 39.5305 18.2254 40.6705 17.4154C42.2205 16.2954 42.9305 14.2154 42.3905 12.3454C42.3005 12.0254 42.4805 11.6954 42.8005 11.5954C43.1205 11.5054 43.4505 11.6854 43.5505 12.0054C44.2405 14.3954 43.3705 16.9554 41.3805 18.3854C40.0905 19.3154 39.4105 19.5354 38.5405 19.8054C37.9305 20.0054 37.1705 20.2454 35.9405 20.8354C35.8605 20.8754 35.7705 20.8954 35.6805 20.8954H35.6705Z" fill="black"/>
  <path d="M23.1295 27.8161C22.8595 27.8161 22.6195 27.6361 22.5495 27.3661C22.4695 27.0461 22.6595 26.7161 22.9895 26.6361C23.1195 26.6061 26.2095 25.8261 29.6195 25.6461C31.9395 25.5261 33.9295 25.7061 34.9295 25.9061C35.2595 25.9661 35.4695 26.2861 35.3995 26.6161C35.3295 26.9461 35.0195 27.1561 34.6895 27.0861C34.4795 27.0461 32.5795 26.6961 29.6695 26.8461C26.3795 27.0261 23.2995 27.7961 23.2695 27.8061C23.2195 27.8161 23.1695 27.8261 23.1195 27.8261L23.1295 27.8161Z" fill="black"/>
  <path d="M24.2501 25.7861C24.0401 25.7861 23.8401 25.6761 23.7301 25.4961C23.5601 25.2061 23.6501 24.8361 23.9401 24.6661C24.0701 24.5861 27.0601 22.8161 29.1601 21.9961L30.2901 21.5461C31.4301 21.0961 32.3301 20.7361 33.3601 20.4261C33.6801 20.3261 34.0201 20.5061 34.1101 20.8261C34.2101 21.1461 34.0301 21.4861 33.7101 21.5761C32.7301 21.8761 31.8901 22.2061 30.7401 22.6661L29.6101 23.1161C27.6001 23.9061 24.6001 25.6861 24.5701 25.7061C24.4701 25.7661 24.3701 25.7961 24.2601 25.7961L24.2501 25.7861Z" fill="black"/>
  <path d="M16.4895 27.2656C16.3195 27.2656 16.1495 27.1956 16.0295 27.0556C16.0195 27.0356 14.7395 25.5556 13.4495 24.6956C13.2195 24.5356 12.8996 24.3556 12.5396 24.1356C10.6096 22.9856 7.69955 21.2356 7.20955 18.9656C6.49955 15.6956 8.60955 14.3556 9.61955 13.7156C9.70955 13.6656 9.79955 13.5956 9.87955 13.5456C9.84955 13.4356 9.80955 13.2856 9.76955 13.1556C9.41955 11.9956 8.69955 9.58559 10.2795 7.32559C12.1695 4.61559 14.5195 4.72559 15.7795 4.78559C15.9995 4.79559 16.2896 4.80559 16.4296 4.78559C16.4796 4.68559 16.5295 4.57559 16.5795 4.44559C17.1295 3.21559 18.2796 0.655592 22.1396 0.0855922C25.2295 -0.364408 26.9095 1.06559 27.9095 1.91559C28.1395 2.11559 28.4995 2.23559 28.7795 2.07559C29.7695 1.53559 32.7796 -0.0944037 35.8596 1.9256C38.4396 3.6156 38.2795 6.2856 38.2095 7.4256C38.2095 7.5456 38.1995 7.64559 38.1895 7.72559C38.1895 7.74559 38.2695 7.78559 38.4595 7.78559C39.0795 7.78559 41.1795 7.92559 42.4195 9.71559C42.6095 9.98559 42.5395 10.3656 42.2695 10.5556C41.9995 10.7456 41.6195 10.6756 41.4296 10.4056C40.5096 9.09559 38.9295 8.9956 38.4495 8.9956C37.9495 8.9956 37.5695 8.86559 37.2995 8.59559C37.1495 8.43559 36.9596 8.15559 36.9696 7.71559C36.9696 7.61559 36.9695 7.4956 36.9895 7.3556C37.0595 6.2656 37.1796 4.24559 35.1796 2.93559C32.6996 1.30559 30.2595 2.6356 29.3395 3.1356C28.6595 3.5056 27.7596 3.38559 27.1096 2.83559C26.1496 2.01559 24.8496 0.895595 22.2896 1.27559C19.0796 1.74559 18.1895 3.74559 17.6495 4.93559C17.5595 5.13559 17.4795 5.30559 17.4095 5.44559C17.0895 6.04559 16.4095 6.00559 15.6895 5.97559C14.4495 5.91559 12.7495 5.8356 11.2295 7.9956C9.98955 9.7856 10.5495 11.6656 10.8795 12.7856C11.0295 13.2856 11.1195 13.5956 11.0495 13.8756C10.9595 14.2356 10.6495 14.4256 10.2295 14.6956C9.26955 15.3056 7.81955 16.2356 8.34955 18.6756C8.72955 20.4356 11.4795 22.0856 13.1195 23.0656C13.4995 23.2956 13.8295 23.4956 14.0795 23.6556C15.5195 24.6156 16.8495 26.1756 16.9095 26.2356C17.1295 26.4856 17.0995 26.8656 16.8395 27.0856C16.7295 27.1856 16.5895 27.2256 16.4495 27.2256L16.4895 27.2656Z" fill="black"/>
  <path d="M33.5702 32.3658C32.1802 32.3658 30.5402 32.1358 28.6402 31.8358C25.3802 31.3158 24.7302 31.2758 24.6402 31.2758C24.3602 31.2758 24.0902 31.1158 24.0202 30.8258C23.9402 30.5058 24.1302 30.1758 24.4502 30.0958C24.5702 30.0658 24.7902 30.0058 28.8402 30.6558C33.4002 31.3858 35.6402 31.4758 36.8302 30.0658C38.0202 28.6658 37.7202 27.5158 37.7102 27.4658L37.5502 26.8758L38.1402 26.7158C38.1402 26.7158 42.4302 25.5558 43.0902 22.5358C43.4702 20.7658 42.1102 19.4658 42.0502 19.4158C41.8102 19.1858 41.7902 18.8058 42.0202 18.5658C42.2502 18.3258 42.6302 18.3058 42.8702 18.5358C42.9502 18.6058 44.8002 20.3458 44.2702 22.7958C43.6002 25.8758 40.2602 27.2958 38.9602 27.7358C38.9902 28.4158 38.8302 29.5958 37.7602 30.8558C36.7902 31.9958 35.4102 32.3858 33.5902 32.3858L33.5702 32.3658Z" fill="black"/>
  <path d="M22.1693 43.8454C22.0593 43.8454 19.3993 43.7954 17.5493 43.0754C17.2393 42.9554 17.0893 42.6054 17.2093 42.2954C17.3293 41.9854 17.6793 41.8354 17.9893 41.9554C19.6393 42.5954 22.1693 42.6454 22.1893 42.6454C22.5193 42.6454 22.7893 42.9254 22.7793 43.2554C22.7793 43.5854 22.5093 43.8454 22.1793 43.8454H22.1693Z" fill="black"/>
  <path d="M22.0211 22.9361C21.9611 22.9361 21.9111 22.9361 21.8511 22.9161C21.5311 22.8261 21.3511 22.4861 21.4411 22.1661C21.4611 22.1161 22.9611 17.1061 25.3911 12.5461C26.4711 10.5161 28.4611 7.11605 29.3611 6.04605C29.5811 5.78605 29.9611 5.75605 30.2111 5.97605C30.4611 6.18605 30.5011 6.56605 30.2811 6.82605C29.5111 7.73605 27.6411 10.8761 26.4511 13.1161C24.0811 17.5661 22.6111 22.4661 22.5911 22.5161C22.5111 22.7761 22.2711 22.9461 22.0111 22.9461L22.0211 22.9361Z" fill="black"/>
  <path d="M19.6706 23.256C19.4306 23.256 19.2006 23.106 19.1106 22.876C19.0706 22.766 18.0806 20.206 17.3806 16.426C16.6706 12.576 17.3606 9.47597 17.3806 9.34597C17.4506 9.02597 17.7706 8.81596 18.1006 8.89596C18.4206 8.96596 18.6306 9.29596 18.5606 9.61596C18.5606 9.64596 17.9006 12.616 18.5606 16.216C19.2306 19.876 20.2206 22.426 20.2306 22.446C20.3506 22.756 20.2006 23.106 19.8906 23.226C19.8206 23.256 19.7406 23.266 19.6706 23.266V23.256Z" fill="black"/>
  <path d="M21.6008 48.4054C17.9608 48.4054 14.0508 45.3154 13.8808 45.1754C13.6208 44.9654 13.5808 44.5854 13.7808 44.3254C13.9908 44.0654 14.3708 44.0254 14.6308 44.2254C14.6708 44.2554 18.7008 47.4454 21.9808 47.1754C23.8108 47.0354 24.6108 45.9154 24.8608 43.1854C24.9908 41.7254 25.2908 40.5054 25.7908 39.3854L23.9408 39.2954C21.8308 39.1754 18.7908 39.5854 18.7608 39.5954C18.4308 39.6354 18.1308 39.4054 18.0808 39.0754C18.0308 38.7454 18.2708 38.4454 18.6008 38.3954C18.7308 38.3754 21.7808 37.9654 24.0108 38.0854L26.1508 38.1954C26.4908 38.2154 26.7908 38.3954 26.9708 38.6854C27.1408 38.9754 27.1608 39.3254 27.0108 39.6254C26.4908 40.7154 26.1908 41.8454 26.0608 43.2954C25.8608 45.5354 25.2208 48.1354 22.0808 48.3754C21.9308 48.3854 21.7708 48.3954 21.6108 48.3954L21.6008 48.4054Z" fill="black"/>
  <path d="M6.20993 36.2852C6.20993 36.2852 6.16993 36.2852 6.13993 36.2852C5.91993 36.2652 0.689929 35.6452 0.0799293 32.6752C-0.400071 30.3852 1.56993 29.3352 2.61993 28.7752L2.77993 28.6852C3.69993 28.1852 4.98993 27.4052 5.52993 26.4152L5.70993 26.0752H6.15993C6.41993 26.0752 6.63993 26.2452 6.73993 26.4952L6.76993 26.5952L8.22993 34.1252C8.28993 34.4552 8.07994 34.7652 7.74994 34.8352C7.41994 34.8952 7.10994 34.6852 7.03994 34.3552L5.80993 28.0252C5.08993 28.7552 4.15993 29.3152 3.34993 29.7552L3.17994 29.8452C1.91994 30.5152 0.979935 31.1352 1.24994 32.4452C1.60994 34.1952 4.98993 34.9552 6.25993 35.0952C6.58993 35.1352 6.82994 35.4252 6.78994 35.7652C6.75994 36.0752 6.48993 36.3052 6.18993 36.3052L6.20993 36.2852Z" fill="black"/>
</svg>