<svg xmlns="http://www.w3.org/2000/svg" width="45" height="47" viewBox="0 0 45 47" fill="none">
  <path d="M16.0708 12.0854L16.1708 6.97543L18.6508 1.46543L20.1708 1.06543L20.9008 5.68543L21.5708 8.95543C21.5708 8.95543 20.5308 9.27543 18.8108 10.2854C17.2908 11.1754 16.0508 12.0854 16.0508 12.0854H16.0708Z" fill="#59A9FC"/>
  <path d="M4.90945 26.2854C4.90945 26.2854 7.04944 29.7154 8.48944 30.0854C9.92944 30.4554 12.9794 29.1354 14.1294 30.0854C15.2794 31.0354 15.8395 32.2454 15.7695 33.2454C15.6995 34.2454 13.4194 37.8854 11.9594 36.6654C10.2594 35.2354 10.0594 33.8954 9.20944 33.6454C8.35944 33.3954 7.78945 34.1954 6.66945 34.2454C6.10945 34.2754 3.93945 33.9254 3.93945 33.9254L4.91945 26.2754L4.90945 26.2854Z" fill="#59A9FC"/>
  <path d="M25.3291 7.56606C25.3291 7.56606 24.7491 8.94606 25.1291 9.36606C25.5091 9.78606 27.3591 9.81605 28.4791 9.27605C29.1891 8.93605 29.5791 5.70605 29.5791 5.70605L25.3291 7.56606Z" fill="#59A9FC"/>
  <path d="M15.469 44.7856C14.799 44.7856 14.139 44.6956 13.539 44.4456C11.709 43.7056 10.809 42.1256 10.449 41.2856C9.02902 41.5556 6.66902 41.4256 5.11902 39.3956C3.04902 36.6856 2.41902 30.4056 5.20902 23.6356C8.25902 16.2356 13.689 12.2656 15.019 11.3756C15.019 10.3956 15.129 7.53559 16.269 4.51559C17.109 2.28559 18.179 0.98559 18.939 0.29559C19.259 0.00558963 19.709 -0.0844095 20.109 0.0855905C20.509 0.245591 20.769 0.61559 20.789 1.04559C20.829 1.96559 20.929 3.66559 21.129 4.74559C21.419 6.37559 22.029 8.54559 22.039 8.56559C22.129 8.88559 21.939 9.21559 21.619 9.30559C21.299 9.39559 20.969 9.20559 20.879 8.88559C20.849 8.79559 20.249 6.63559 19.949 4.94559C19.769 3.92559 19.659 2.45559 19.609 1.31559C18.969 1.95559 18.109 3.07559 17.419 4.91559C16.129 8.34559 16.249 11.6256 16.249 11.6556L16.269 12.0056L15.969 12.1956C15.909 12.2356 9.60902 16.1656 6.34902 24.0756C3.72902 30.4256 4.23902 36.2156 6.09902 38.6456C7.79902 40.8756 10.539 40.0156 10.659 39.9856L11.259 39.7956L11.429 40.3956C11.429 40.3956 12.059 42.5256 14.019 43.3156C14.659 43.5756 15.429 43.6056 16.189 43.5256C15.719 43.4256 15.219 43.2956 14.709 43.0956C12.399 42.2356 12.239 40.0656 12.229 39.9656L12.199 39.5456L12.579 39.3756C12.579 39.3756 16.979 37.3556 18.779 33.3056C18.959 32.9056 19.109 32.4956 19.219 32.0856C19.309 31.7656 19.639 31.5756 19.959 31.6656C20.279 31.7556 20.469 32.0856 20.379 32.4056C20.249 32.8756 20.079 33.3356 19.879 33.7956C18.219 37.5356 14.729 39.6256 13.499 40.2656C13.639 40.7456 14.039 41.5656 15.119 41.9656C16.679 42.5456 17.969 42.5556 19.049 42.5156C19.419 42.4956 19.729 42.7556 19.799 43.1156C19.869 43.5056 19.669 43.8756 19.299 44.0056C18.389 44.3356 16.919 44.7556 15.489 44.7556L15.469 44.7856Z" fill="black"/>
  <path d="M20.1492 29.5954C19.8192 29.5954 19.5492 29.3354 19.5492 29.0054C19.5392 28.3154 19.4892 27.6154 19.4492 26.8854C19.3092 24.6554 19.1592 22.1154 19.7692 19.1554C19.8392 18.8254 20.1492 18.6254 20.4792 18.6854C20.8092 18.7554 21.0192 19.0754 20.9492 19.3954C20.3692 22.1954 20.5192 24.6454 20.6492 26.8054C20.6992 27.5554 20.7392 28.2754 20.7492 28.9754C20.7492 29.3054 20.4892 29.5854 20.1592 29.5954H20.1492Z" fill="black"/>
  <path d="M20.351 19.8854C20.351 19.8854 20.291 19.8854 20.261 19.8854C19.931 19.8354 19.711 19.5254 19.761 19.1954C19.781 19.0354 20.401 15.2554 23.781 12.9654C25.791 11.5954 27.211 10.6454 28.411 11.0854C28.871 11.2554 29.611 11.9554 31.111 13.4054C32.811 15.0454 35.131 17.2954 36.411 17.8054C38.521 18.6354 41.831 18.6154 42.191 18.1054C42.101 17.2854 40.371 14.7754 38.811 13.2854C37.391 11.9154 34.281 10.0554 33.931 9.85537L33.621 9.67537V9.27536C33.621 9.03537 33.761 8.82537 33.971 8.72537C34.111 8.65537 34.381 8.55537 34.741 8.42537C35.931 7.99537 38.131 7.18537 39.311 6.19537C39.521 6.01537 39.751 5.82537 39.991 5.62537C40.911 4.86537 43.041 3.11537 43.131 2.49537C42.471 1.93537 38.801 1.17537 34.261 3.28537C32.971 3.88537 31.871 4.66537 30.901 5.35537C29.851 6.10537 28.941 6.74537 27.981 7.07537C26.171 7.68537 25.321 8.00537 23.811 8.65537C23.511 8.78537 23.151 8.65537 23.021 8.34537C22.891 8.03537 23.021 7.68537 23.331 7.55537C24.871 6.88537 25.781 6.54537 27.591 5.93537C28.391 5.66537 29.231 5.06537 30.211 4.37537C31.231 3.65537 32.381 2.84537 33.761 2.19537C38.691 -0.0946288 43.001 0.635369 44.041 1.68537C44.261 1.90537 44.371 2.19537 44.351 2.51537C44.291 3.57537 42.831 4.85537 40.771 6.55537C40.531 6.75537 40.301 6.93537 40.091 7.11537C38.871 8.13537 36.831 8.93537 35.521 9.41537C36.701 10.1554 38.561 11.3854 39.631 12.4154C41.071 13.7954 43.231 16.5954 43.361 18.0454C43.401 18.4554 43.221 18.8354 42.861 19.1054C41.591 20.0554 37.791 19.6554 35.951 18.9254C34.451 18.3354 32.131 16.0854 30.261 14.2754C29.371 13.4154 28.261 12.3454 27.981 12.2154C27.371 11.9854 25.981 12.9354 24.511 13.9354C21.511 15.9754 20.961 19.3554 20.951 19.3954C20.901 19.6954 20.651 19.9054 20.351 19.9054V19.8854Z" fill="black"/>
  <path d="M11.5198 46.7752L10.9498 46.6252C10.8898 46.6052 10.7898 46.5852 10.6698 46.5552C9.66977 46.3052 6.99977 45.6452 5.74977 43.1952C4.82977 41.4052 5.25977 39.3152 5.27977 39.2352C5.34977 38.9152 5.66976 38.7052 5.98976 38.7752C6.30976 38.8452 6.51977 39.1652 6.44977 39.4852C6.44977 39.5052 6.08977 41.2452 6.80977 42.6452C7.16977 43.3552 7.68977 43.8752 8.24977 44.2652C8.01977 43.9552 7.80977 43.6052 7.63977 43.2252C6.96977 41.7352 7.31977 40.5252 7.32977 40.4752C7.41977 40.1552 7.75977 39.9752 8.07977 40.0652C8.39977 40.1652 8.57976 40.4952 8.48976 40.8152C8.48976 40.8452 8.25976 41.6652 8.73976 42.7252C9.39976 44.1952 10.7498 45.0352 11.3298 45.3852L11.9298 45.7652L11.7398 46.2852L11.5198 46.7652V46.7752Z" fill="black"/>
  <path d="M21.9805 33.0358C20.8605 33.0358 20.0505 32.9558 19.9605 32.9458C19.6305 32.9158 19.3905 32.6158 19.4205 32.2858C19.4505 31.9558 19.7405 31.7058 20.0805 31.7458C20.1305 31.7458 25.2905 32.2458 27.4705 30.6958C28.9005 29.6758 29.9005 27.6458 30.4005 26.3858L20.3505 30.0958C20.0405 30.2158 19.6905 30.0558 19.5805 29.7358C19.4605 29.4258 19.6205 29.0758 19.9405 28.9658L30.6105 25.0258C30.9405 24.9058 31.3105 24.9858 31.5605 25.2258C31.8105 25.4758 31.8905 25.8358 31.7805 26.1658C31.2505 27.6358 30.0905 30.3158 28.1805 31.6758C26.5905 32.8158 23.8605 33.0358 21.9905 33.0358H21.9805Z" fill="black"/>
  <path d="M3.28 31.0352C3.1 31.0352 2.93 30.9552 2.81 30.8052C2.75 30.7352 1.39999 29.0252 0.679993 26.4252C0.149993 24.5252 0.03 22.1452 0 20.8952C0 20.5452 0.210003 20.2352 0.550003 20.1352C0.870003 20.0352 1.19999 20.1452 1.39999 20.4052L5.19 24.7352C5.41 24.9852 5.37999 25.3652 5.12999 25.5852C4.87999 25.8052 4.5 25.7752 4.28 25.5252L1.25999 22.0752C1.32999 23.2352 1.49 24.8152 1.84 26.0952C2.49 28.4452 3.74 30.0352 3.75 30.0452C3.96 30.3052 3.92 30.6852 3.66 30.8952C3.55 30.9852 3.42 31.0252 3.28 31.0252V31.0352Z" fill="black"/>
  <path d="M12.5298 34.8053C12.7198 35.0453 13.5498 34.9753 13.9298 34.3853C14.3098 33.7853 14.0298 33.0053 13.7298 32.9253C13.2498 32.8053 12.2198 34.4153 12.5298 34.8053Z" fill="black"/>
  <path d="M12.9102 35.5357C12.5402 35.5357 12.2502 35.4157 12.0602 35.1857C11.6202 34.6457 12.0402 33.8057 12.3202 33.3657C12.6102 32.9157 13.1902 32.1858 13.8702 32.3458C14.1802 32.4158 14.4402 32.6757 14.5902 33.0557C14.7602 33.4857 14.8102 34.1457 14.4402 34.7157C14.0702 35.2857 13.4502 35.5157 13.0002 35.5357C12.9702 35.5357 12.9402 35.5357 12.9102 35.5357ZM13.5102 33.7557C13.3902 33.9057 13.2702 34.0857 13.1902 34.2557C13.2802 34.2157 13.3602 34.1457 13.4202 34.0557C13.4802 33.9557 13.5102 33.8557 13.5102 33.7557Z" fill="black"/>
</svg>