<svg width="25" height="23" viewBox="0 0 25 23" fill="none" xmlns="http://www.w3.org/2000/svg">
<path d="M10.61 4.7793C5.85737 4.7793 2 8.63667 2 13.3893C2 15.7656 2.96158 17.9209 4.52 19.4793L2.01105 21.9993H10.599C15.3516 21.9993 19.209 18.1419 19.209 13.3893C19.209 8.63667 15.3516 4.7793 10.599 4.7793H10.61ZM16.9874 13.7761C16.8658 13.8977 16.7111 13.9861 16.5342 14.0193C16.1032 14.0967 15.7495 13.8204 15.5505 13.4667C15.3184 13.0467 15.1637 12.5935 14.9095 12.1735C14.3458 11.2672 13.5721 10.4825 12.6768 9.88561C12.279 9.62035 11.87 9.3993 11.4279 9.22246C11.2732 9.15614 11.1074 9.10088 10.9747 8.99035C10.7758 8.83561 10.6542 8.59246 10.6432 8.3493C10.6211 7.86298 11.03 7.43193 11.5163 7.45403C11.7374 7.45403 11.9474 7.5314 12.1463 7.61982C13.2626 8.06193 14.3016 8.71403 15.1526 9.57614C15.9595 10.394 16.5784 11.3777 17.0205 12.4277C17.1642 12.7704 17.2858 13.1461 17.1642 13.4888C17.12 13.5993 17.0537 13.7098 16.9763 13.7872L16.9874 13.7761Z" stroke="#333333" stroke-miterlimit="10"/>
<path d="M19.2559 12.4837H23.3454L21.6758 10.4271C22.7147 9.38817 23.3454 8.33895 23.3454 6.74737C23.3454 3.57526 20.7702 1 17.5981 1C15.0781 1 12.9338 2.62474 12.1602 4.89053V4.90158C15.8738 5.58684 18.7586 8.67053 19.1454 12.4837H19.2559Z" stroke="#333333" stroke-miterlimit="10"/>
</svg>
