<svg width="26" height="26" viewBox="0 0 26 26" fill="none" xmlns="http://www.w3.org/2000/svg">
<g clip-path="url(#clip0_1103_6899)">
<path d="M6.50657 11.9983C6.50493 11.0124 6.49836 10.0264 6.50164 9.04047C6.50493 8.14611 6.53284 7.25342 6.52463 6.35907C6.51149 4.92677 7.04025 3.71597 8.00416 2.70837C10.1438 0.473314 13.5265 0.418353 15.7007 2.6201C17.2114 4.149 17.6926 6.03264 17.0653 8.10281C16.4363 10.178 14.9995 11.4387 12.8976 11.8967C12.5511 11.9717 12.1981 11.995 11.8418 11.995C10.0617 11.9917 8.28004 11.995 6.5 11.995L6.50493 12L6.50657 11.9983ZM12.0831 4.9351C12.0831 5.58796 12.5971 6.11424 13.2408 6.11591C13.8812 6.11758 14.4051 5.59295 14.41 4.94342C14.4149 4.2789 13.8977 3.75428 13.2375 3.75595C12.5922 3.75595 12.0831 4.27724 12.0831 4.93676V4.9351Z" stroke="#333333" stroke-width="0.85" stroke-miterlimit="10"/>
<path d="M6.49319 12.0042C6.48946 13.1403 6.35053 15.3062 6.3468 16.4423C6.3468 16.5044 6.34494 16.6287 6.34494 16.6287C6.3207 16.7985 6.22561 16.9351 6 17C5.77439 17.0649 5.58048 17.0207 5.41081 16.8978C5.00994 16.6066 4 15.5 3.5 15C2.33377 13.8338 2 13.5 1.33218 12.7841C1.11216 12.6254 1.01894 12.4542 1.13267 12.2458C1.24641 12.0345 1.49812 11.9987 1.78153 12C3.35519 12.0056 4.92699 12.0056 6.50065 12.0069L6.49506 12.0028L6.49319 12.0042Z" stroke="#333333" stroke-width="0.85" stroke-miterlimit="10"/>
<path d="M19.8268 14.0017C19.8284 14.9876 19.835 15.9736 19.8317 16.9595C19.8284 17.8539 19.8005 18.7466 19.8087 19.6409C19.8218 21.0732 19.2931 22.284 18.3292 23.2916C16.1895 25.5267 12.8068 25.5816 10.6326 23.3799C9.12191 21.851 8.64078 19.9674 9.26806 17.8972C9.89698 15.822 11.3338 14.5613 13.4357 14.1033C13.7822 14.0283 14.1352 14.005 14.4916 14.005C16.2716 14.0083 18.0533 14.005 19.8333 14.005L19.8284 14L19.8268 14.0017ZM14.2502 21.0632C14.2502 20.4104 13.7362 19.8841 13.0925 19.8824C12.4521 19.8808 11.9283 20.4054 11.9233 21.0549C11.9184 21.7194 12.4357 22.2441 13.0958 22.2424C13.7411 22.2424 14.2502 21.7211 14.2502 21.0616V21.0632Z" stroke="#333333" stroke-width="0.85" stroke-miterlimit="10"/>
<path d="M19.8395 13.9948C19.8432 12.5746 19.8469 11.1545 19.8507 9.73438C19.8507 9.65673 19.8451 9.57735 19.8525 9.50143C19.8768 9.28919 19.9719 9.11836 20.1975 9.03725C20.4231 8.95615 20.617 9.01137 20.7867 9.16495C21.1875 9.52904 21.5884 9.89313 21.9874 10.2589C22.9905 11.1804 23.9899 12.1053 25.0005 13.0198C25.2205 13.2183 25.3137 13.4322 25.2 13.6928C25.0863 13.9568 24.8346 14.0017 24.5512 14C22.9775 13.9931 21.4057 13.9931 19.832 13.9913L19.8376 13.9965L19.8395 13.9948Z" stroke="#333333" stroke-width="0.85" stroke-miterlimit="10"/>
</g>
<defs>
<clipPath id="clip0_1103_6899">
<rect width="26" height="26" fill="white"/>
</clipPath>
</defs>
</svg>
